<svg width="50" height="50" viewBox="0 0 50 50" fill="none" xmlns="http://www.w3.org/2000/svg">
<g clip-path="url(#clip0_2844_54)">
<path d="M26.4648 25.0977V30.957C26.4648 31.7776 25.8205 32.4219 25 32.4219C24.1795 32.4219 23.5352 31.7776 23.5352 30.957V25.0977C23.5352 24.2771 24.1795 23.6328 25 23.6328C25.8205 23.6328 26.4648 24.2771 26.4648 25.0977Z" fill="#BEEBFA"/>
<path d="M26.4648 25.0977V30.957C26.4648 31.7776 25.8205 32.4219 25 32.4219V23.6328C25.8205 23.6328 26.4648 24.2771 26.4648 25.0977Z" fill="#7ED8F6"/>
<path d="M25 29.4922C22.5681 29.4922 20.6055 31.4548 20.6055 33.8867V39.7461C20.6055 40.5666 21.2498 41.2109 22.0703 41.2109H23.5352V33.8867C23.5352 33.0662 24.1795 32.4219 25 32.4219C25.8205 32.4219 26.4648 33.0662 26.4648 33.8867V41.2109H27.9297C28.7502 41.2109 29.3945 40.5666 29.3945 39.7461V33.8867C29.3945 31.4548 27.4319 29.4922 25 29.4922Z" fill="#07485E"/>
<path d="M29.3945 33.8867V39.7461C29.3945 40.5666 28.7502 41.2109 27.9297 41.2109H26.4648V33.8867C26.4648 33.0662 25.8205 32.4219 25 32.4219V29.4922C27.4319 29.4922 29.3945 31.4548 29.3945 33.8867Z" fill="#03232E"/>
<path d="M19.1406 44.1406H1.46484C0.655365 44.1406 0 43.4853 0 42.6758C0 41.8663 0.655365 41.2109 1.46484 41.2109H19.1406C19.9501 41.2109 20.6055 41.8663 20.6055 42.6758C20.6055 43.4853 19.9501 44.1406 19.1406 44.1406Z" fill="#BEEBFA"/>
<path d="M48.5352 44.1406H30.8594C30.0499 44.1406 29.3945 43.4853 29.3945 42.6758C29.3945 41.8663 30.0499 41.2109 30.8594 41.2109H48.5352C49.3446 41.2109 50 41.8663 50 42.6758C50 43.4853 49.3446 44.1406 48.5352 44.1406Z" fill="#7ED8F6"/>
<path d="M42.5781 0H7.42188C6.60133 0 5.95703 0.644302 5.95703 1.46484V13.1836C5.95703 14.0041 6.60133 14.6484 7.42188 14.6484H42.5781C43.3987 14.6484 44.043 14.0041 44.043 13.1836V1.46484C44.043 0.644302 43.3987 0 42.5781 0Z" fill="#0B799D"/>
<path d="M44.043 1.46484V13.1836C44.043 14.0041 43.3987 14.6484 42.5781 14.6484H25V0H42.5781C43.3987 0 44.043 0.644302 44.043 1.46484Z" fill="#07485E"/>
<path d="M44.043 13.1836V24.9023C44.043 25.7229 43.3987 26.3672 42.5781 26.3672H7.42188C6.60133 26.3672 5.95703 25.7229 5.95703 24.9023V13.1836H44.043Z" fill="#07485E"/>
<path d="M44.043 13.1836V24.9023C44.043 25.7229 43.3987 26.3672 42.5781 26.3672H25V13.1836H44.043Z" fill="#03232E"/>
<path d="M14.7461 7.32422C14.7461 8.13332 14.0903 8.78906 13.2812 8.78906C12.4722 8.78906 11.8164 8.13332 11.8164 7.32422C11.8164 6.51512 12.4722 5.85938 13.2812 5.85938C14.0903 5.85938 14.7461 6.51512 14.7461 7.32422Z" fill="#6FE8D5"/>
<path d="M20.6055 7.32422C20.6055 8.13332 19.9497 8.78906 19.1406 8.78906C18.3315 8.78906 17.6758 8.13332 17.6758 7.32422C17.6758 6.51512 18.3315 5.85938 19.1406 5.85938C19.9497 5.85938 20.6055 6.51512 20.6055 7.32422Z" fill="#6FE8D5"/>
<path d="M14.7461 19.043C14.7461 19.8521 14.0903 20.5078 13.2812 20.5078C12.4722 20.5078 11.8164 19.8521 11.8164 19.043C11.8164 18.2339 12.4722 17.5781 13.2812 17.5781C14.0903 17.5781 14.7461 18.2339 14.7461 19.043Z" fill="#6FE8D5"/>
<path d="M20.6055 19.043C20.6055 19.8521 19.9497 20.5078 19.1406 20.5078C18.3315 20.5078 17.6758 19.8521 17.6758 19.043C17.6758 18.2339 18.3315 17.5781 19.1406 17.5781C19.9497 17.5781 20.6055 18.2339 20.6055 19.043Z" fill="#6FE8D5"/>
<path d="M30.8594 38.2812H19.1406C18.3201 38.2812 17.6758 38.9256 17.6758 39.7461V48.5352C17.6758 49.3557 18.3201 50 19.1406 50H30.8594C31.6799 50 32.3242 49.3557 32.3242 48.5352V39.7461C32.3242 38.9256 31.6799 38.2812 30.8594 38.2812Z" fill="#FDBF00"/>
<path d="M32.3242 39.7461V48.5352C32.3242 49.3557 31.6799 50 30.8594 50H25V38.2812H30.8594C31.6799 38.2812 32.3242 38.9256 32.3242 39.7461Z" fill="#FF9100"/>
<path d="M26.4648 7.32422C26.4648 8.14476 25.8205 8.78906 25 8.78906C24.1795 8.78906 23.5352 8.14476 23.5352 7.32422C23.5352 6.50368 24.1795 5.85938 25 5.85938C25.8205 5.85938 26.4648 6.50368 26.4648 7.32422Z" fill="#6FE8D5"/>
<path d="M26.4648 19.043C26.4648 19.8635 25.8205 20.5078 25 20.5078C24.1795 20.5078 23.5352 19.8635 23.5352 19.043C23.5352 18.2224 24.1795 17.5781 25 17.5781C25.8205 17.5781 26.4648 18.2224 26.4648 19.043Z" fill="#6FE8D5"/>
<path d="M26.4648 19.043C26.4648 19.8635 25.8205 20.5078 25 20.5078V17.5781C25.8205 17.5781 26.4648 18.2224 26.4648 19.043Z" fill="#15CCC2"/>
<path d="M25 8.78906V5.85938C25.8205 5.85938 26.4648 6.50368 26.4648 7.32422C26.4648 8.14476 25.8205 8.78906 25 8.78906Z" fill="#15CCC2"/>
</g>
<defs>
<clipPath id="clip0_2844_54">
<rect width="50" height="50" fill="white"/>
</clipPath>
</defs>
</svg>
