<svg width="50" height="50" viewBox="0 0 50 50" fill="none" xmlns="http://www.w3.org/2000/svg">
<g clip-path="url(#clip0_2844_94)">
<path d="M19.5606 32.6172L15.1367 37.0411C14.5947 37.5828 13.6868 37.6709 13.0566 37.0411C12.4706 36.4842 12.4706 35.5469 13.0566 34.9606L17.4805 30.537C18.0664 29.9511 19.0037 29.9511 19.5606 30.537C20.1466 31.0936 20.1466 32.0313 19.5606 32.6172Z" fill="#07485E"/>
<path d="M19.5606 32.6172L15.1367 37.0411C14.5947 37.5828 13.6868 37.6709 13.0566 37.0411L19.5606 30.537C20.1466 31.0936 20.1466 32.0313 19.5606 32.6172Z" fill="#03232E"/>
<path d="M44.4042 5.69344C40.9763 2.23618 36.2011 0.0976562 30.957 0.0976562C20.4685 0.0976562 11.9141 8.65211 11.9141 19.1406C11.9141 24.3847 14.0526 29.1599 17.5098 32.5878C20.9373 36.0447 25.713 38.1836 30.957 38.1836C41.4455 38.1836 50 29.6288 50 19.1406C50 13.8966 47.8615 9.12094 44.4042 5.69344Z" fill="#B4D2D7"/>
<path d="M50 19.1406C50 29.6287 41.4455 38.1836 30.957 38.1836C25.713 38.1836 20.9377 36.0447 17.5098 32.5878L44.4042 5.69342C47.8615 9.12093 50 13.8965 50 19.1406Z" fill="#87A0AF"/>
<path d="M47.0703 19.1406C47.0703 28.0174 39.8342 35.2539 30.957 35.2539C26.5038 35.2539 22.4903 33.4373 19.5606 30.537C16.6603 27.6073 14.8438 23.5935 14.8438 19.1406C14.8438 10.2634 22.0798 3.02734 30.957 3.02734C35.4103 3.02734 39.4238 4.8439 42.3534 7.74422C45.2538 10.6739 47.0703 14.6873 47.0703 19.1406Z" fill="#FFF5F5"/>
<path d="M47.0703 19.1406C47.0703 28.0174 39.8342 35.2539 30.957 35.2539C26.5038 35.2539 22.4903 33.4373 19.5606 30.537L42.3534 7.7442C45.2538 10.6739 47.0703 14.6873 47.0703 19.1406Z" fill="#EFE2DD"/>
<path d="M12.0899 44.2188L6.65054 49.6582C6.08025 50.2285 5.1693 50.2575 4.57039 49.6582L0.439453 45.5273C-0.146484 44.9414 -0.146484 44.0331 0.439453 43.4471L5.87883 38.0078L9.74617 40.3515L9.77554 40.3809L12.0899 44.2188Z" fill="#0B799D"/>
<path d="M12.0899 44.2188L6.65054 49.6582C6.08025 50.2285 5.1693 50.2575 4.57039 49.6582L2.51961 47.6074L9.74617 40.3515L9.77554 40.3809L12.0899 44.2188Z" fill="#07485E"/>
<path d="M17.1875 39.1212L12.0899 44.2188L5.87883 38.0077L10.9764 32.9102C11.5623 32.3242 12.4706 32.3242 13.0566 32.9102L17.1875 37.0411C17.7734 37.627 17.7734 38.5353 17.1875 39.1212Z" fill="#B4D2D7"/>
<path d="M17.1875 39.1212L12.0899 44.2188L8.98438 41.1133L15.1363 34.9903L17.1871 37.0411C17.7734 37.627 17.7734 38.5353 17.1875 39.1212Z" fill="#87A0AF"/>
<path d="M34.531 17.5293C34.3262 17.617 34.1209 17.6758 33.8867 17.6758H23.6328C22.0146 17.6758 20.7031 16.3643 20.7031 14.7461V10.3516C20.7031 9.54247 21.3589 8.88672 22.168 8.88672H30.957C31.5136 8.88672 32.0118 9.20906 32.2754 9.70688L35.2051 15.5663C35.5568 16.2693 35.2634 17.1486 34.531 17.5293Z" fill="#FF9F22"/>
<path d="M39.7461 14.7461H20.7031V27.9297C20.7031 28.3398 20.879 28.6915 21.1132 28.9845C21.4062 29.2187 21.7579 29.3945 22.168 29.3945H39.7461C40.5666 29.3945 41.2109 28.7498 41.2109 27.9297V16.2109C41.2109 15.3904 40.5663 14.7461 39.7461 14.7461Z" fill="#0B799D"/>
<path d="M41.2109 16.2109V27.9297C41.2109 28.7498 40.5666 29.3945 39.7461 29.3945H22.168C21.7579 29.3945 21.4062 29.2187 21.1132 28.9845L35.3516 14.7461H39.7461C40.5663 14.7461 41.2109 15.3904 41.2109 16.2109Z" fill="#07485E"/>
<path d="M29.4922 22.0703C29.4922 22.8905 28.8479 23.5352 28.0273 23.5352C27.6173 23.5352 27.2655 23.3593 26.9726 23.1251C26.7384 22.8321 26.5625 22.4804 26.5625 22.0703C26.5625 21.2498 27.2068 20.6055 28.0273 20.6055C28.4374 20.6055 28.7891 20.7813 29.0821 21.0155C29.3163 21.3085 29.4922 21.6602 29.4922 22.0703Z" fill="#E1EBF0"/>
<path d="M29.4922 22.0703C29.4922 22.8905 28.8479 23.5352 28.0273 23.5352C27.6173 23.5352 27.2655 23.3593 26.9726 23.1251L29.0821 21.0156C29.3163 21.3085 29.4922 21.6602 29.4922 22.0703Z" fill="#B4D2D7"/>
<path d="M35.3516 22.0703C35.3516 22.8794 34.6958 23.5352 33.8867 23.5352C33.0776 23.5352 32.4219 22.8794 32.4219 22.0703C32.4219 21.2612 33.0776 20.6055 33.8867 20.6055C34.6958 20.6055 35.3516 21.2612 35.3516 22.0703Z" fill="#B4D2D7"/>
</g>
<defs>
<clipPath id="clip0_2844_94">
<rect width="50" height="50" fill="white"/>
</clipPath>
</defs>
</svg>
