<svg width="478" height="69" viewBox="0 0 478 69" fill="none" xmlns="http://www.w3.org/2000/svg">
<path d="M12.6307 7.45455C12.6307 8.83523 12.3814 10.0284 11.8828 11.0341C11.3842 12.0398 10.7003 12.8153 9.83097 13.3608C8.96165 13.9062 7.96875 14.179 6.85227 14.179C5.7358 14.179 4.7429 13.9062 3.87358 13.3608C3.00426 12.8153 2.32031 12.0398 1.82173 11.0341C1.32315 10.0284 1.07386 8.83523 1.07386 7.45455C1.07386 6.07386 1.32315 4.88068 1.82173 3.875C2.32031 2.86932 3.00426 2.09375 3.87358 1.5483C4.7429 1.00284 5.7358 0.730113 6.85227 0.730113C7.96875 0.730113 8.96165 1.00284 9.83097 1.5483C10.7003 2.09375 11.3842 2.86932 11.8828 3.875C12.3814 4.88068 12.6307 6.07386 12.6307 7.45455ZM11.0966 7.45455C11.0966 6.32102 10.907 5.36435 10.5277 4.58452C10.1527 3.80469 9.64347 3.21449 9 2.81392C8.3608 2.41335 7.64489 2.21307 6.85227 2.21307C6.05966 2.21307 5.34162 2.41335 4.69815 2.81392C4.05895 3.21449 3.54972 3.80469 3.17045 4.58452C2.79545 5.36435 2.60795 6.32102 2.60795 7.45455C2.60795 8.58807 2.79545 9.54474 3.17045 10.3246C3.54972 11.1044 4.05895 11.6946 4.69815 12.0952C5.34162 12.4957 6.05966 12.696 6.85227 12.696C7.64489 12.696 8.3608 12.4957 9 12.0952C9.64347 11.6946 10.1527 11.1044 10.5277 10.3246C10.907 9.54474 11.0966 8.58807 11.0966 7.45455ZM21.2791 9.9858V4.18182H22.7876V14H21.2791V12.3381H21.1768C20.9467 12.8366 20.5888 13.2607 20.103 13.6101C19.6172 13.9553 19.0036 14.1278 18.2621 14.1278C17.6484 14.1278 17.103 13.9936 16.6257 13.7251C16.1484 13.4524 15.7734 13.0433 15.5007 12.4979C15.228 11.9482 15.0916 11.2557 15.0916 10.4205V4.18182H16.6001V10.3182C16.6001 11.0341 16.8004 11.6051 17.201 12.0312C17.6058 12.4574 18.1214 12.6705 18.7479 12.6705C19.1229 12.6705 19.5043 12.5746 19.892 12.3828C20.2841 12.1911 20.6122 11.897 20.8764 11.5007C21.1449 11.1044 21.2791 10.5994 21.2791 9.9858ZM25.5506 14V4.18182H27.008V5.66477H27.1103C27.2892 5.17898 27.6131 4.7848 28.0819 4.48224C28.5506 4.17969 29.079 4.02841 29.6671 4.02841C29.7779 4.02841 29.9164 4.03054 30.0826 4.0348C30.2488 4.03906 30.3745 4.04545 30.4597 4.05398V5.58807C30.4086 5.57528 30.2914 5.55611 30.1081 5.53054C29.9292 5.50071 29.7395 5.4858 29.5392 5.4858C29.062 5.4858 28.6358 5.58594 28.2608 5.78622C27.8901 5.98224 27.5961 6.25497 27.3787 6.6044C27.1657 6.94957 27.0591 7.34375 27.0591 7.78693V14H25.5506ZM37.3104 14V4.18182H38.7678V5.66477H38.87C39.049 5.17898 39.3729 4.7848 39.8416 4.48224C40.3104 4.17969 40.8388 4.02841 41.4268 4.02841C41.5376 4.02841 41.6761 4.03054 41.8423 4.0348C42.0085 4.03906 42.1342 4.04545 42.2195 4.05398V5.58807C42.1683 5.57528 42.0511 5.55611 41.8679 5.53054C41.6889 5.50071 41.4993 5.4858 41.299 5.4858C40.8217 5.4858 40.3956 5.58594 40.0206 5.78622C39.6499 5.98224 39.3558 6.25497 39.1385 6.6044C38.9254 6.94957 38.8189 7.34375 38.8189 7.78693V14H37.3104ZM47.8253 14.2045C46.8793 14.2045 46.0632 13.9957 45.3771 13.5781C44.6953 13.1562 44.169 12.5682 43.7983 11.8139C43.4318 11.0554 43.2486 10.1733 43.2486 9.16761C43.2486 8.16193 43.4318 7.27557 43.7983 6.50852C44.169 5.73722 44.6847 5.13636 45.3452 4.70597C46.0099 4.27131 46.7855 4.05398 47.6719 4.05398C48.1832 4.05398 48.6882 4.1392 49.1868 4.30966C49.6854 4.48011 50.1392 4.7571 50.5483 5.14062C50.9574 5.51989 51.2834 6.02273 51.5263 6.64915C51.7692 7.27557 51.8906 8.04687 51.8906 8.96307V9.60227H44.3224V8.2983H50.3565C50.3565 7.74432 50.2457 7.25 50.0241 6.81534C49.8068 6.38068 49.4957 6.03764 49.0909 5.78622C48.6903 5.5348 48.2173 5.40909 47.6719 5.40909C47.071 5.40909 46.5511 5.55824 46.1122 5.85653C45.6776 6.15057 45.343 6.53409 45.1087 7.0071C44.8743 7.48011 44.7571 7.98722 44.7571 8.52841V9.39773C44.7571 10.1392 44.8849 10.7678 45.1406 11.2834C45.4006 11.7947 45.7607 12.1847 46.2209 12.4531C46.6811 12.7173 47.2159 12.8494 47.8253 12.8494C48.2216 12.8494 48.5795 12.794 48.8991 12.6832C49.223 12.5682 49.5021 12.3977 49.7365 12.1719C49.9709 11.9418 50.152 11.6562 50.2798 11.3153L51.7372 11.7244C51.5838 12.2188 51.326 12.6534 50.9638 13.0284C50.6016 13.3991 50.1541 13.6889 49.6214 13.8977C49.0888 14.1023 48.4901 14.2045 47.8253 14.2045ZM61.915 4.18182L58.2843 14H56.7502L53.1195 4.18182H54.7559L57.4661 12.0057H57.5684L60.2786 4.18182H61.915ZM67.5431 14.2045C66.6568 14.2045 65.8791 13.9936 65.21 13.5717C64.5453 13.1499 64.0254 12.5597 63.6504 11.8011C63.2797 11.0426 63.0943 10.1562 63.0943 9.14205C63.0943 8.11932 63.2797 7.22656 63.6504 6.46378C64.0254 5.70099 64.5453 5.10866 65.21 4.68679C65.8791 4.26491 66.6568 4.05398 67.5431 4.05398C68.4295 4.05398 69.2051 4.26491 69.8699 4.68679C70.5389 5.10866 71.0588 5.70099 71.4295 6.46378C71.8045 7.22656 71.992 8.11932 71.992 9.14205C71.992 10.1562 71.8045 11.0426 71.4295 11.8011C71.0588 12.5597 70.5389 13.1499 69.8699 13.5717C69.2051 13.9936 68.4295 14.2045 67.5431 14.2045ZM67.5431 12.8494C68.2164 12.8494 68.7704 12.6768 69.2051 12.3317C69.6397 11.9865 69.9615 11.5327 70.1703 10.9702C70.3791 10.4077 70.4835 9.7983 70.4835 9.14205C70.4835 8.4858 70.3791 7.87429 70.1703 7.30753C69.9615 6.74077 69.6397 6.28267 69.2051 5.93324C68.7704 5.58381 68.2164 5.40909 67.5431 5.40909C66.8699 5.40909 66.3159 5.58381 65.8812 5.93324C65.4466 6.28267 65.1248 6.74077 64.916 7.30753C64.7072 7.87429 64.6028 8.4858 64.6028 9.14205C64.6028 9.7983 64.7072 10.4077 64.916 10.9702C65.1248 11.5327 65.4466 11.9865 65.8812 12.3317C66.3159 12.6768 66.8699 12.8494 67.5431 12.8494ZM75.8033 0.909091V14H74.2947V0.909091H75.8033ZM84.7537 9.9858V4.18182H86.2623V14H84.7537V12.3381H84.6515C84.4213 12.8366 84.0634 13.2607 83.5776 13.6101C83.0918 13.9553 82.4782 14.1278 81.7367 14.1278C81.123 14.1278 80.5776 13.9936 80.1003 13.7251C79.623 13.4524 79.248 13.0433 78.9753 12.4979C78.7026 11.9482 78.5662 11.2557 78.5662 10.4205V4.18182H80.0748V10.3182C80.0748 11.0341 80.275 11.6051 80.6756 12.0312C81.0804 12.4574 81.5961 12.6705 82.2225 12.6705C82.5975 12.6705 82.9789 12.5746 83.3667 12.3828C83.7587 12.1911 84.0868 11.897 84.351 11.5007C84.6195 11.1044 84.7537 10.5994 84.7537 9.9858ZM93.2951 4.18182V5.46023H88.207V4.18182H93.2951ZM89.69 1.82955H91.1985V11.1875C91.1985 11.6136 91.2603 11.9332 91.3839 12.1463C91.5117 12.3551 91.6737 12.4957 91.8697 12.5682C92.07 12.6364 92.2809 12.6705 92.5025 12.6705C92.6687 12.6705 92.805 12.6619 92.9116 12.6449C93.0181 12.6236 93.1033 12.6065 93.1673 12.5938L93.4741 13.9489C93.3718 13.9872 93.229 14.0256 93.0458 14.0639C92.8626 14.1065 92.6303 14.1278 92.3491 14.1278C91.9229 14.1278 91.5053 14.0362 91.0962 13.853C90.6914 13.6697 90.3548 13.3906 90.0863 13.0156C89.8221 12.6406 89.69 12.1676 89.69 11.5966V1.82955ZM95.5643 14V4.18182H97.0728V14H95.5643ZM96.3313 2.54545C96.0373 2.54545 95.7837 2.44531 95.5707 2.24503C95.3619 2.04474 95.2575 1.80398 95.2575 1.52273C95.2575 1.24148 95.3619 1.00071 95.5707 0.800426C95.7837 0.600142 96.0373 0.5 96.3313 0.5C96.6254 0.5 96.8768 0.600142 97.0856 0.800426C97.2987 1.00071 97.4052 1.24148 97.4052 1.52273C97.4052 1.80398 97.2987 2.04474 97.0856 2.24503C96.8768 2.44531 96.6254 2.54545 96.3313 2.54545ZM103.824 14.2045C102.938 14.2045 102.16 13.9936 101.491 13.5717C100.827 13.1499 100.307 12.5597 99.9316 11.8011C99.5609 11.0426 99.3755 10.1562 99.3755 9.14205C99.3755 8.11932 99.5609 7.22656 99.9316 6.46378C100.307 5.70099 100.827 5.10866 101.491 4.68679C102.16 4.26491 102.938 4.05398 103.824 4.05398C104.711 4.05398 105.486 4.26491 106.151 4.68679C106.82 5.10866 107.34 5.70099 107.711 6.46378C108.086 7.22656 108.273 8.11932 108.273 9.14205C108.273 10.1562 108.086 11.0426 107.711 11.8011C107.34 12.5597 106.82 13.1499 106.151 13.5717C105.486 13.9936 104.711 14.2045 103.824 14.2045ZM103.824 12.8494C104.498 12.8494 105.052 12.6768 105.486 12.3317C105.921 11.9865 106.243 11.5327 106.452 10.9702C106.66 10.4077 106.765 9.7983 106.765 9.14205C106.765 8.4858 106.66 7.87429 106.452 7.30753C106.243 6.74077 105.921 6.28267 105.486 5.93324C105.052 5.58381 104.498 5.40909 103.824 5.40909C103.151 5.40909 102.597 5.58381 102.162 5.93324C101.728 6.28267 101.406 6.74077 101.197 7.30753C100.988 7.87429 100.884 8.4858 100.884 9.14205C100.884 9.7983 100.988 10.4077 101.197 10.9702C101.406 11.5327 101.728 11.9865 102.162 12.3317C102.597 12.6768 103.151 12.8494 103.824 12.8494ZM112.085 8.09375V14H110.576V4.18182H112.033V5.71591H112.161C112.391 5.21733 112.741 4.81676 113.21 4.5142C113.678 4.20739 114.283 4.05398 115.025 4.05398C115.69 4.05398 116.271 4.19034 116.77 4.46307C117.268 4.73153 117.656 5.14062 117.933 5.69034C118.21 6.2358 118.349 6.92614 118.349 7.76136V14H116.84V7.86364C116.84 7.09233 116.64 6.49148 116.239 6.06108C115.839 5.62642 115.289 5.40909 114.59 5.40909C114.109 5.40909 113.678 5.51349 113.299 5.7223C112.924 5.93111 112.628 6.2358 112.411 6.63636C112.193 7.03693 112.085 7.52273 112.085 8.09375ZM123.994 14.2301C123.372 14.2301 122.808 14.1129 122.301 13.8786C121.794 13.6399 121.391 13.2969 121.093 12.8494C120.794 12.3977 120.645 11.8523 120.645 11.2131C120.645 10.6506 120.756 10.1946 120.977 9.84517C121.199 9.49148 121.495 9.21449 121.866 9.0142C122.237 8.81392 122.646 8.66477 123.093 8.56676C123.545 8.46449 123.999 8.38352 124.455 8.32386C125.051 8.24716 125.535 8.18963 125.906 8.15128C126.281 8.10866 126.553 8.03835 126.724 7.94034C126.899 7.84233 126.986 7.67187 126.986 7.42898V7.37784C126.986 6.74716 126.813 6.2571 126.468 5.90767C126.127 5.55824 125.61 5.38352 124.915 5.38352C124.195 5.38352 123.63 5.54119 123.221 5.85653C122.812 6.17187 122.524 6.50852 122.358 6.86648L120.926 6.35511C121.182 5.75852 121.523 5.29403 121.949 4.96165C122.379 4.625 122.848 4.39062 123.355 4.25852C123.867 4.12216 124.369 4.05398 124.864 4.05398C125.179 4.05398 125.541 4.09233 125.95 4.16903C126.364 4.24148 126.762 4.39276 127.146 4.62287C127.534 4.85298 127.855 5.20028 128.111 5.66477C128.367 6.12926 128.494 6.75142 128.494 7.53125V14H126.986V12.6705H126.909C126.807 12.8835 126.637 13.1115 126.398 13.3544C126.159 13.5973 125.842 13.804 125.445 13.9744C125.049 14.1449 124.566 14.2301 123.994 14.2301ZM124.225 12.875C124.821 12.875 125.324 12.7578 125.733 12.5234C126.146 12.2891 126.458 11.9865 126.666 11.6158C126.879 11.245 126.986 10.8551 126.986 10.446V9.06534C126.922 9.14205 126.781 9.21236 126.564 9.27628C126.351 9.33594 126.104 9.3892 125.823 9.43608C125.546 9.47869 125.275 9.51705 125.011 9.55114C124.751 9.58097 124.54 9.60653 124.378 9.62784C123.986 9.67898 123.619 9.76207 123.279 9.87713C122.942 9.98793 122.669 10.1562 122.46 10.3821C122.256 10.6037 122.154 10.9062 122.154 11.2898C122.154 11.8139 122.347 12.2102 122.735 12.4787C123.127 12.7429 123.624 12.875 124.225 12.875ZM131.248 14V4.18182H132.705V5.66477H132.808C132.987 5.17898 133.31 4.7848 133.779 4.48224C134.248 4.17969 134.776 4.02841 135.364 4.02841C135.475 4.02841 135.614 4.03054 135.78 4.0348C135.946 4.03906 136.072 4.04545 136.157 4.05398V5.58807C136.106 5.57528 135.989 5.55611 135.805 5.53054C135.626 5.50071 135.437 5.4858 135.237 5.4858C134.759 5.4858 134.333 5.58594 133.958 5.78622C133.587 5.98224 133.293 6.25497 133.076 6.6044C132.863 6.94957 132.756 7.34375 132.756 7.78693V14H131.248ZM139.216 17.6818C138.96 17.6818 138.732 17.6605 138.532 17.6179C138.331 17.5795 138.193 17.5412 138.116 17.5028L138.5 16.1733C138.866 16.267 139.19 16.3011 139.471 16.2756C139.752 16.25 140.002 16.1243 140.219 15.8984C140.441 15.6768 140.643 15.3168 140.826 14.8182L141.108 14.0511L137.477 4.18182H139.113L141.824 12.0057H141.926L144.636 4.18182H146.272L142.105 15.4318C141.917 15.9389 141.685 16.3587 141.408 16.6911C141.131 17.0277 140.809 17.277 140.443 17.4389C140.081 17.6009 139.672 17.6818 139.216 17.6818ZM164.065 5H162.479C162.386 4.54403 162.222 4.14347 161.987 3.7983C161.757 3.45312 161.476 3.16335 161.143 2.92898C160.815 2.69034 160.451 2.51136 160.05 2.39205C159.65 2.27273 159.232 2.21307 158.798 2.21307C158.005 2.21307 157.287 2.41335 156.643 2.81392C156.004 3.21449 155.495 3.80469 155.116 4.58452C154.741 5.36435 154.553 6.32102 154.553 7.45455C154.553 8.58807 154.741 9.54474 155.116 10.3246C155.495 11.1044 156.004 11.6946 156.643 12.0952C157.287 12.4957 158.005 12.696 158.798 12.696C159.232 12.696 159.65 12.6364 160.05 12.517C160.451 12.3977 160.815 12.2209 161.143 11.9865C161.476 11.7479 161.757 11.456 161.987 11.1108C162.222 10.7614 162.386 10.3608 162.479 9.90909H164.065C163.945 10.5781 163.728 11.1768 163.413 11.7053C163.097 12.2337 162.705 12.6832 162.237 13.054C161.768 13.4205 161.241 13.6996 160.658 13.8913C160.078 14.0831 159.458 14.179 158.798 14.179C157.681 14.179 156.688 13.9062 155.819 13.3608C154.95 12.8153 154.266 12.0398 153.767 11.0341C153.268 10.0284 153.019 8.83523 153.019 7.45455C153.019 6.07386 153.268 4.88068 153.767 3.875C154.266 2.86932 154.95 2.09375 155.819 1.5483C156.688 1.00284 157.681 0.730113 158.798 0.730113C159.458 0.730113 160.078 0.825994 160.658 1.01776C161.241 1.20952 161.768 1.49077 162.237 1.86151C162.705 2.22798 163.097 2.67543 163.413 3.20384C163.728 3.72798 163.945 4.3267 164.065 5ZM167.93 0.909091V14H166.422V0.909091H167.93ZM174.682 14.2045C173.795 14.2045 173.018 13.9936 172.349 13.5717C171.684 13.1499 171.164 12.5597 170.789 11.8011C170.418 11.0426 170.233 10.1562 170.233 9.14205C170.233 8.11932 170.418 7.22656 170.789 6.46378C171.164 5.70099 171.684 5.10866 172.349 4.68679C173.018 4.26491 173.795 4.05398 174.682 4.05398C175.568 4.05398 176.344 4.26491 177.009 4.68679C177.678 5.10866 178.197 5.70099 178.568 6.46378C178.943 7.22656 179.131 8.11932 179.131 9.14205C179.131 10.1562 178.943 11.0426 178.568 11.8011C178.197 12.5597 177.678 13.1499 177.009 13.5717C176.344 13.9936 175.568 14.2045 174.682 14.2045ZM174.682 12.8494C175.355 12.8494 175.909 12.6768 176.344 12.3317C176.778 11.9865 177.1 11.5327 177.309 10.9702C177.518 10.4077 177.622 9.7983 177.622 9.14205C177.622 8.4858 177.518 7.87429 177.309 7.30753C177.1 6.74077 176.778 6.28267 176.344 5.93324C175.909 5.58381 175.355 5.40909 174.682 5.40909C174.009 5.40909 173.455 5.58381 173.02 5.93324C172.585 6.28267 172.263 6.74077 172.055 7.30753C171.846 7.87429 171.741 8.4858 171.741 9.14205C171.741 9.7983 171.846 10.4077 172.055 10.9702C172.263 11.5327 172.585 11.9865 173.02 12.3317C173.455 12.6768 174.009 12.8494 174.682 12.8494ZM187.621 9.9858V4.18182H189.129V14H187.621V12.3381H187.519C187.289 12.8366 186.931 13.2607 186.445 13.6101C185.959 13.9553 185.345 14.1278 184.604 14.1278C183.99 14.1278 183.445 13.9936 182.968 13.7251C182.49 13.4524 182.115 13.0433 181.843 12.4979C181.57 11.9482 181.433 11.2557 181.433 10.4205V4.18182H182.942V10.3182C182.942 11.0341 183.142 11.6051 183.543 12.0312C183.948 12.4574 184.463 12.6705 185.09 12.6705C185.465 12.6705 185.846 12.5746 186.234 12.3828C186.626 12.1911 186.954 11.897 187.218 11.5007C187.487 11.1044 187.621 10.5994 187.621 9.9858ZM195.6 14.2045C194.782 14.2045 194.059 13.9979 193.433 13.5845C192.806 13.1669 192.316 12.5788 191.963 11.8203C191.609 11.0575 191.432 10.1562 191.432 9.11648C191.432 8.08523 191.609 7.19034 191.963 6.43182C192.316 5.6733 192.809 5.08736 193.439 4.67401C194.07 4.26065 194.799 4.05398 195.625 4.05398C196.265 4.05398 196.77 4.16051 197.14 4.37358C197.515 4.58239 197.801 4.82102 197.997 5.08949C198.197 5.35369 198.353 5.57102 198.463 5.74148H198.591V0.909091H200.1V14H198.642V12.4915H198.463C198.353 12.6705 198.195 12.8963 197.99 13.169C197.786 13.4375 197.494 13.6783 197.115 13.8913C196.735 14.1001 196.23 14.2045 195.6 14.2045ZM195.804 12.8494C196.409 12.8494 196.921 12.6918 197.338 12.3764C197.756 12.0568 198.074 11.6158 198.291 11.0533C198.508 10.4865 198.617 9.83239 198.617 9.09091C198.617 8.35795 198.51 7.71662 198.297 7.1669C198.084 6.61293 197.769 6.18253 197.351 5.87571C196.934 5.56463 196.418 5.40909 195.804 5.40909C195.165 5.40909 194.632 5.57315 194.206 5.90128C193.784 6.22514 193.467 6.66619 193.254 7.22443C193.045 7.77841 192.941 8.40057 192.941 9.09091C192.941 9.78977 193.047 10.4247 193.26 10.9957C193.478 11.5625 193.797 12.0142 194.219 12.3509C194.645 12.6832 195.174 12.8494 195.804 12.8494ZM215.089 6.38068L213.734 6.7642C213.649 6.53835 213.523 6.31889 213.357 6.10582C213.195 5.88849 212.973 5.70952 212.692 5.56889C212.411 5.42827 212.051 5.35795 211.612 5.35795C211.011 5.35795 210.51 5.49645 210.11 5.77344C209.713 6.04616 209.515 6.39347 209.515 6.81534C209.515 7.19034 209.652 7.48651 209.924 7.70384C210.197 7.92116 210.623 8.10227 211.203 8.24716L212.66 8.60511C213.538 8.81818 214.192 9.14418 214.623 9.5831C215.053 10.0178 215.268 10.5781 215.268 11.2642C215.268 11.8267 215.106 12.3295 214.782 12.7727C214.463 13.2159 214.015 13.5653 213.44 13.821C212.865 14.0767 212.196 14.2045 211.433 14.2045C210.431 14.2045 209.603 13.9872 208.946 13.5526C208.29 13.1179 207.875 12.483 207.7 11.6477L209.132 11.2898C209.268 11.8182 209.526 12.2145 209.905 12.4787C210.289 12.7429 210.789 12.875 211.407 12.875C212.11 12.875 212.669 12.7259 213.082 12.4276C213.5 12.125 213.708 11.7628 213.708 11.3409C213.708 11 213.589 10.7145 213.35 10.4844C213.112 10.25 212.745 10.0753 212.251 9.96023L210.615 9.5767C209.716 9.36364 209.055 9.03338 208.633 8.58594C208.216 8.13423 208.007 7.5696 208.007 6.89205C208.007 6.33807 208.162 5.84801 208.473 5.42188C208.789 4.99574 209.217 4.66122 209.758 4.41832C210.304 4.17543 210.922 4.05398 211.612 4.05398C212.583 4.05398 213.346 4.26705 213.9 4.69318C214.458 5.11932 214.855 5.68182 215.089 6.38068ZM221.528 14.2045C220.641 14.2045 219.863 13.9936 219.194 13.5717C218.53 13.1499 218.01 12.5597 217.635 11.8011C217.264 11.0426 217.079 10.1562 217.079 9.14205C217.079 8.11932 217.264 7.22656 217.635 6.46378C218.01 5.70099 218.53 5.10866 219.194 4.68679C219.863 4.26491 220.641 4.05398 221.528 4.05398C222.414 4.05398 223.189 4.26491 223.854 4.68679C224.523 5.10866 225.043 5.70099 225.414 6.46378C225.789 7.22656 225.976 8.11932 225.976 9.14205C225.976 10.1562 225.789 11.0426 225.414 11.8011C225.043 12.5597 224.523 13.1499 223.854 13.5717C223.189 13.9936 222.414 14.2045 221.528 14.2045ZM221.528 12.8494C222.201 12.8494 222.755 12.6768 223.189 12.3317C223.624 11.9865 223.946 11.5327 224.155 10.9702C224.363 10.4077 224.468 9.7983 224.468 9.14205C224.468 8.4858 224.363 7.87429 224.155 7.30753C223.946 6.74077 223.624 6.28267 223.189 5.93324C222.755 5.58381 222.201 5.40909 221.528 5.40909C220.854 5.40909 220.3 5.58381 219.866 5.93324C219.431 6.28267 219.109 6.74077 218.9 7.30753C218.692 7.87429 218.587 8.4858 218.587 9.14205C218.587 9.7983 218.692 10.4077 218.9 10.9702C219.109 11.5327 219.431 11.9865 219.866 12.3317C220.3 12.6768 220.854 12.8494 221.528 12.8494ZM229.788 0.909091V14H228.279V0.909091H229.788ZM238.738 9.9858V4.18182H240.247V14H238.738V12.3381H238.636C238.406 12.8366 238.048 13.2607 237.562 13.6101C237.076 13.9553 236.463 14.1278 235.721 14.1278C235.107 14.1278 234.562 13.9936 234.085 13.7251C233.607 13.4524 233.232 13.0433 232.96 12.4979C232.687 11.9482 232.551 11.2557 232.551 10.4205V4.18182H234.059V10.3182C234.059 11.0341 234.259 11.6051 234.66 12.0312C235.065 12.4574 235.58 12.6705 236.207 12.6705C236.582 12.6705 236.963 12.5746 237.351 12.3828C237.743 12.1911 238.071 11.897 238.335 11.5007C238.604 11.1044 238.738 10.5994 238.738 9.9858ZM247.279 4.18182V5.46023H242.191V4.18182H247.279ZM243.674 1.82955H245.183V11.1875C245.183 11.6136 245.245 11.9332 245.368 12.1463C245.496 12.3551 245.658 12.4957 245.854 12.5682C246.054 12.6364 246.265 12.6705 246.487 12.6705C246.653 12.6705 246.789 12.6619 246.896 12.6449C247.002 12.6236 247.088 12.6065 247.152 12.5938L247.458 13.9489C247.356 13.9872 247.213 14.0256 247.03 14.0639C246.847 14.1065 246.615 14.1278 246.333 14.1278C245.907 14.1278 245.49 14.0362 245.081 13.853C244.676 13.6697 244.339 13.3906 244.071 13.0156C243.806 12.6406 243.674 12.1676 243.674 11.5966V1.82955ZM249.549 14V4.18182H251.057V14H249.549ZM250.316 2.54545C250.022 2.54545 249.768 2.44531 249.555 2.24503C249.346 2.04474 249.242 1.80398 249.242 1.52273C249.242 1.24148 249.346 1.00071 249.555 0.800426C249.768 0.600142 250.022 0.5 250.316 0.5C250.61 0.5 250.861 0.600142 251.07 0.800426C251.283 1.00071 251.39 1.24148 251.39 1.52273C251.39 1.80398 251.283 2.04474 251.07 2.24503C250.861 2.44531 250.61 2.54545 250.316 2.54545ZM257.809 14.2045C256.922 14.2045 256.145 13.9936 255.476 13.5717C254.811 13.1499 254.291 12.5597 253.916 11.8011C253.545 11.0426 253.36 10.1562 253.36 9.14205C253.36 8.11932 253.545 7.22656 253.916 6.46378C254.291 5.70099 254.811 5.10866 255.476 4.68679C256.145 4.26491 256.922 4.05398 257.809 4.05398C258.695 4.05398 259.471 4.26491 260.135 4.68679C260.805 5.10866 261.324 5.70099 261.695 6.46378C262.07 7.22656 262.258 8.11932 262.258 9.14205C262.258 10.1562 262.07 11.0426 261.695 11.8011C261.324 12.5597 260.805 13.1499 260.135 13.5717C259.471 13.9936 258.695 14.2045 257.809 14.2045ZM257.809 12.8494C258.482 12.8494 259.036 12.6768 259.471 12.3317C259.905 11.9865 260.227 11.5327 260.436 10.9702C260.645 10.4077 260.749 9.7983 260.749 9.14205C260.749 8.4858 260.645 7.87429 260.436 7.30753C260.227 6.74077 259.905 6.28267 259.471 5.93324C259.036 5.58381 258.482 5.40909 257.809 5.40909C257.135 5.40909 256.581 5.58381 256.147 5.93324C255.712 6.28267 255.39 6.74077 255.182 7.30753C254.973 7.87429 254.868 8.4858 254.868 9.14205C254.868 9.7983 254.973 10.4077 255.182 10.9702C255.39 11.5327 255.712 11.9865 256.147 12.3317C256.581 12.6768 257.135 12.8494 257.809 12.8494ZM266.069 8.09375V14H264.56V4.18182H266.018V5.71591H266.146C266.376 5.21733 266.725 4.81676 267.194 4.5142C267.663 4.20739 268.268 4.05398 269.009 4.05398C269.674 4.05398 270.256 4.19034 270.754 4.46307C271.253 4.73153 271.641 5.14062 271.918 5.69034C272.195 6.2358 272.333 6.92614 272.333 7.76136V14H270.825V7.86364C270.825 7.09233 270.624 6.49148 270.224 6.06108C269.823 5.62642 269.273 5.40909 268.575 5.40909C268.093 5.40909 267.663 5.51349 267.283 5.7223C266.908 5.93111 266.612 6.2358 266.395 6.63636C266.178 7.03693 266.069 7.52273 266.069 8.09375ZM280.152 14V4.18182H281.661V14H280.152ZM280.919 2.54545C280.625 2.54545 280.372 2.44531 280.159 2.24503C279.95 2.04474 279.845 1.80398 279.845 1.52273C279.845 1.24148 279.95 1.00071 280.159 0.800426C280.372 0.600142 280.625 0.5 280.919 0.5C281.213 0.5 281.465 0.600142 281.673 0.800426C281.887 1.00071 281.993 1.24148 281.993 1.52273C281.993 1.80398 281.887 2.04474 281.673 2.24503C281.465 2.44531 281.213 2.54545 280.919 2.54545ZM291.378 6.38068L290.023 6.7642C289.938 6.53835 289.812 6.31889 289.646 6.10582C289.484 5.88849 289.262 5.70952 288.981 5.56889C288.7 5.42827 288.34 5.35795 287.901 5.35795C287.3 5.35795 286.799 5.49645 286.399 5.77344C286.002 6.04616 285.804 6.39347 285.804 6.81534C285.804 7.19034 285.941 7.48651 286.213 7.70384C286.486 7.92116 286.912 8.10227 287.492 8.24716L288.949 8.60511C289.827 8.81818 290.481 9.14418 290.912 9.5831C291.342 10.0178 291.557 10.5781 291.557 11.2642C291.557 11.8267 291.395 12.3295 291.071 12.7727C290.752 13.2159 290.304 13.5653 289.729 13.821C289.154 14.0767 288.485 14.2045 287.722 14.2045C286.721 14.2045 285.892 13.9872 285.235 13.5526C284.579 13.1179 284.164 12.483 283.989 11.6477L285.421 11.2898C285.557 11.8182 285.815 12.2145 286.194 12.4787C286.578 12.7429 287.078 12.875 287.696 12.875C288.4 12.875 288.958 12.7259 289.371 12.4276C289.789 12.125 289.998 11.7628 289.998 11.3409C289.998 11 289.878 10.7145 289.64 10.4844C289.401 10.25 289.034 10.0753 288.54 9.96023L286.904 9.5767C286.005 9.36364 285.344 9.03338 284.922 8.58594C284.505 8.13423 284.296 7.5696 284.296 6.89205C284.296 6.33807 284.451 5.84801 284.762 5.42188C285.078 4.99574 285.506 4.66122 286.047 4.41832C286.593 4.17543 287.211 4.05398 287.901 4.05398C288.873 4.05398 289.635 4.26705 290.189 4.69318C290.748 5.11932 291.144 5.68182 291.378 6.38068ZM298.89 17.6818V4.18182H300.348V5.74148H300.527C300.638 5.57102 300.791 5.35369 300.987 5.08949C301.187 4.82102 301.473 4.58239 301.844 4.37358C302.219 4.16051 302.726 4.05398 303.365 4.05398C304.192 4.05398 304.92 4.26065 305.551 4.67401C306.182 5.08736 306.674 5.6733 307.028 6.43182C307.381 7.19034 307.558 8.08523 307.558 9.11648C307.558 10.1562 307.381 11.0575 307.028 11.8203C306.674 12.5788 306.184 13.1669 305.557 13.5845C304.931 13.9979 304.209 14.2045 303.39 14.2045C302.76 14.2045 302.255 14.1001 301.876 13.8913C301.496 13.6783 301.204 13.4375 301 13.169C300.795 12.8963 300.638 12.6705 300.527 12.4915H300.399V17.6818H298.89ZM300.373 9.09091C300.373 9.83239 300.482 10.4865 300.699 11.0533C300.917 11.6158 301.234 12.0568 301.652 12.3764C302.069 12.6918 302.581 12.8494 303.186 12.8494C303.817 12.8494 304.343 12.6832 304.765 12.3509C305.191 12.0142 305.51 11.5625 305.724 10.9957C305.941 10.4247 306.05 9.78977 306.05 9.09091C306.05 8.40057 305.943 7.77841 305.73 7.22443C305.521 6.66619 305.204 6.22514 304.778 5.90128C304.356 5.57315 303.825 5.40909 303.186 5.40909C302.572 5.40909 302.057 5.56463 301.639 5.87571C301.221 6.18253 300.906 6.61293 300.693 7.1669C300.48 7.71662 300.373 8.35795 300.373 9.09091ZM313.848 14.2045C312.961 14.2045 312.184 13.9936 311.515 13.5717C310.85 13.1499 310.33 12.5597 309.955 11.8011C309.584 11.0426 309.399 10.1562 309.399 9.14205C309.399 8.11932 309.584 7.22656 309.955 6.46378C310.33 5.70099 310.85 5.10866 311.515 4.68679C312.184 4.26491 312.961 4.05398 313.848 4.05398C314.734 4.05398 315.51 4.26491 316.175 4.68679C316.844 5.10866 317.363 5.70099 317.734 6.46378C318.109 7.22656 318.297 8.11932 318.297 9.14205C318.297 10.1562 318.109 11.0426 317.734 11.8011C317.363 12.5597 316.844 13.1499 316.175 13.5717C315.51 13.9936 314.734 14.2045 313.848 14.2045ZM313.848 12.8494C314.521 12.8494 315.075 12.6768 315.51 12.3317C315.944 11.9865 316.266 11.5327 316.475 10.9702C316.684 10.4077 316.788 9.7983 316.788 9.14205C316.788 8.4858 316.684 7.87429 316.475 7.30753C316.266 6.74077 315.944 6.28267 315.51 5.93324C315.075 5.58381 314.521 5.40909 313.848 5.40909C313.175 5.40909 312.621 5.58381 312.186 5.93324C311.751 6.28267 311.43 6.74077 311.221 7.30753C311.012 7.87429 310.907 8.4858 310.907 9.14205C310.907 9.7983 311.012 10.4077 311.221 10.9702C311.43 11.5327 311.751 11.9865 312.186 12.3317C312.621 12.6768 313.175 12.8494 313.848 12.8494ZM322.49 14L319.498 4.18182H321.084L323.206 11.6989H323.308L325.405 4.18182H327.015L329.086 11.6733H329.189L331.311 4.18182H332.896L329.905 14H328.422L326.274 6.45739H326.121L323.973 14H322.49ZM338.673 14.2045C337.727 14.2045 336.911 13.9957 336.225 13.5781C335.543 13.1562 335.017 12.5682 334.646 11.8139C334.279 11.0554 334.096 10.1733 334.096 9.16761C334.096 8.16193 334.279 7.27557 334.646 6.50852C335.017 5.73722 335.532 5.13636 336.193 4.70597C336.858 4.27131 337.633 4.05398 338.52 4.05398C339.031 4.05398 339.536 4.1392 340.034 4.30966C340.533 4.48011 340.987 4.7571 341.396 5.14062C341.805 5.51989 342.131 6.02273 342.374 6.64915C342.617 7.27557 342.738 8.04687 342.738 8.96307V9.60227H335.17V8.2983H341.204C341.204 7.74432 341.093 7.25 340.872 6.81534C340.654 6.38068 340.343 6.03764 339.939 5.78622C339.538 5.5348 339.065 5.40909 338.52 5.40909C337.919 5.40909 337.399 5.55824 336.96 5.85653C336.525 6.15057 336.191 6.53409 335.956 7.0071C335.722 7.48011 335.605 7.98722 335.605 8.52841V9.39773C335.605 10.1392 335.733 10.7678 335.988 11.2834C336.248 11.7947 336.608 12.1847 337.069 12.4531C337.529 12.7173 338.064 12.8494 338.673 12.8494C339.069 12.8494 339.427 12.794 339.747 12.6832C340.071 12.5682 340.35 12.3977 340.584 12.1719C340.819 11.9418 341 11.6562 341.127 11.3153L342.585 11.7244C342.431 12.2188 342.174 12.6534 341.811 13.0284C341.449 13.3991 341.002 13.6889 340.469 13.8977C339.936 14.1023 339.338 14.2045 338.673 14.2045ZM345.033 14V4.18182H346.49V5.66477H346.593C346.772 5.17898 347.096 4.7848 347.564 4.48224C348.033 4.17969 348.561 4.02841 349.15 4.02841C349.26 4.02841 349.399 4.03054 349.565 4.0348C349.731 4.03906 349.857 4.04545 349.942 4.05398V5.58807C349.891 5.57528 349.774 5.55611 349.591 5.53054C349.412 5.50071 349.222 5.4858 349.022 5.4858C348.544 5.4858 348.118 5.58594 347.743 5.78622C347.373 5.98224 347.078 6.25497 346.861 6.6044C346.648 6.94957 346.542 7.34375 346.542 7.78693V14H345.033ZM356.718 4.18182V5.46023H351.425V4.18182H356.718ZM353.01 14V2.8267C353.01 2.2642 353.142 1.79545 353.407 1.42045C353.671 1.04545 354.014 0.764204 354.436 0.576704C354.858 0.389204 355.303 0.295454 355.772 0.295454C356.142 0.295454 356.445 0.325283 356.679 0.384943C356.914 0.444602 357.088 0.499999 357.203 0.551136L356.769 1.85511C356.692 1.82954 356.586 1.79758 356.449 1.75923C356.317 1.72088 356.142 1.7017 355.925 1.7017C355.426 1.7017 355.066 1.82741 354.845 2.07884C354.627 2.33026 354.519 2.69886 354.519 3.18466V14H353.01ZM365.019 9.9858V4.18182H366.528V14H365.019V12.3381H364.917C364.687 12.8366 364.329 13.2607 363.843 13.6101C363.357 13.9553 362.744 14.1278 362.002 14.1278C361.389 14.1278 360.843 13.9936 360.366 13.7251C359.889 13.4524 359.514 13.0433 359.241 12.4979C358.968 11.9482 358.832 11.2557 358.832 10.4205V4.18182H360.34V10.3182C360.34 11.0341 360.541 11.6051 360.941 12.0312C361.346 12.4574 361.862 12.6705 362.488 12.6705C362.863 12.6705 363.244 12.5746 363.632 12.3828C364.024 12.1911 364.352 11.897 364.617 11.5007C364.885 11.1044 365.019 10.5994 365.019 9.9858ZM370.799 0.909091V14H369.291V0.909091H370.799ZM375.812 12.2102L375.71 12.9006C375.638 13.3864 375.527 13.9062 375.378 14.4602C375.233 15.0142 375.081 15.5362 374.924 16.0263C374.766 16.5163 374.636 16.9063 374.534 17.196H373.383C373.439 16.9233 373.511 16.5632 373.601 16.1158C373.69 15.6683 373.78 15.1676 373.869 14.6136C373.963 14.0639 374.04 13.5014 374.099 12.9261L374.176 12.2102H375.812ZM390.624 6.38068L389.269 6.7642C389.184 6.53835 389.058 6.31889 388.892 6.10582C388.73 5.88849 388.509 5.70952 388.227 5.56889C387.946 5.42827 387.586 5.35795 387.147 5.35795C386.546 5.35795 386.045 5.49645 385.645 5.77344C385.249 6.04616 385.05 6.39347 385.05 6.81534C385.05 7.19034 385.187 7.48651 385.46 7.70384C385.732 7.92116 386.158 8.10227 386.738 8.24716L388.195 8.60511C389.073 8.81818 389.727 9.14418 390.158 9.5831C390.588 10.0178 390.803 10.5781 390.803 11.2642C390.803 11.8267 390.641 12.3295 390.317 12.7727C389.998 13.2159 389.55 13.5653 388.975 13.821C388.4 14.0767 387.731 14.2045 386.968 14.2045C385.967 14.2045 385.138 13.9872 384.482 13.5526C383.825 13.1179 383.41 12.483 383.235 11.6477L384.667 11.2898C384.803 11.8182 385.061 12.2145 385.44 12.4787C385.824 12.7429 386.325 12.875 386.942 12.875C387.646 12.875 388.204 12.7259 388.617 12.4276C389.035 12.125 389.244 11.7628 389.244 11.3409C389.244 11 389.124 10.7145 388.886 10.4844C388.647 10.25 388.281 10.0753 387.786 9.96023L386.15 9.5767C385.251 9.36364 384.59 9.03338 384.168 8.58594C383.751 8.13423 383.542 7.5696 383.542 6.89205C383.542 6.33807 383.697 5.84801 384.009 5.42188C384.324 4.99574 384.752 4.66122 385.293 4.41832C385.839 4.17543 386.457 4.05398 387.147 4.05398C388.119 4.05398 388.881 4.26705 389.435 4.69318C389.994 5.11932 390.39 5.68182 390.624 6.38068ZM393.074 14V4.18182H394.583V14H393.074ZM393.841 2.54545C393.547 2.54545 393.294 2.44531 393.08 2.24503C392.872 2.04474 392.767 1.80398 392.767 1.52273C392.767 1.24148 392.872 1.00071 393.08 0.800426C393.294 0.600142 393.547 0.5 393.841 0.5C394.135 0.5 394.387 0.600142 394.595 0.800426C394.808 1.00071 394.915 1.24148 394.915 1.52273C394.915 1.80398 394.808 2.04474 394.595 2.24503C394.387 2.44531 394.135 2.54545 393.841 2.54545ZM397.346 14V4.18182H398.803V5.71591H398.931C399.135 5.19176 399.466 4.7848 399.922 4.49503C400.377 4.20099 400.925 4.05398 401.564 4.05398C402.212 4.05398 402.751 4.20099 403.181 4.49503C403.616 4.7848 403.955 5.19176 404.198 5.71591H404.3C404.551 5.20881 404.929 4.80611 405.431 4.50781C405.934 4.20526 406.537 4.05398 407.24 4.05398C408.118 4.05398 408.836 4.32884 409.395 4.87855C409.953 5.42401 410.232 6.27415 410.232 7.42898V14H408.723V7.42898C408.723 6.70455 408.525 6.18679 408.129 5.87571C407.733 5.56463 407.266 5.40909 406.729 5.40909C406.039 5.40909 405.504 5.6179 405.125 6.03551C404.745 6.44886 404.556 6.97301 404.556 7.60795V14H403.022V7.27557C403.022 6.71733 402.841 6.26776 402.478 5.92685C402.116 5.58168 401.65 5.40909 401.078 5.40909C400.686 5.40909 400.32 5.51349 399.979 5.7223C399.642 5.93111 399.37 6.22088 399.161 6.59162C398.956 6.9581 398.854 7.3821 398.854 7.86364V14H397.346ZM412.99 17.6818V4.18182H414.447V5.74148H414.626C414.737 5.57102 414.891 5.35369 415.087 5.08949C415.287 4.82102 415.572 4.58239 415.943 4.37358C416.318 4.16051 416.825 4.05398 417.464 4.05398C418.291 4.05398 419.02 4.26065 419.651 4.67401C420.281 5.08736 420.773 5.6733 421.127 6.43182C421.481 7.19034 421.658 8.08523 421.658 9.11648C421.658 10.1562 421.481 11.0575 421.127 11.8203C420.773 12.5788 420.283 13.1669 419.657 13.5845C419.031 13.9979 418.308 14.2045 417.49 14.2045C416.859 14.2045 416.354 14.1001 415.975 13.8913C415.596 13.6783 415.304 13.4375 415.099 13.169C414.895 12.8963 414.737 12.6705 414.626 12.4915H414.499V17.6818H412.99ZM414.473 9.09091C414.473 9.83239 414.582 10.4865 414.799 11.0533C415.016 11.6158 415.334 12.0568 415.751 12.3764C416.169 12.6918 416.68 12.8494 417.286 12.8494C417.916 12.8494 418.442 12.6832 418.864 12.3509C419.29 12.0142 419.61 11.5625 419.823 10.9957C420.04 10.4247 420.149 9.78977 420.149 9.09091C420.149 8.40057 420.043 7.77841 419.83 7.22443C419.621 6.66619 419.303 6.22514 418.877 5.90128C418.455 5.57315 417.925 5.40909 417.286 5.40909C416.672 5.40909 416.156 5.56463 415.739 5.87571C415.321 6.18253 415.006 6.61293 414.793 7.1669C414.58 7.71662 414.473 8.35795 414.473 9.09091ZM425.467 0.909091V14H423.959V0.909091H425.467ZM432.347 14.2045C431.401 14.2045 430.585 13.9957 429.899 13.5781C429.217 13.1562 428.691 12.5682 428.32 11.8139C427.953 11.0554 427.77 10.1733 427.77 9.16761C427.77 8.16193 427.953 7.27557 428.32 6.50852C428.691 5.73722 429.206 5.13636 429.867 4.70597C430.531 4.27131 431.307 4.05398 432.193 4.05398C432.705 4.05398 433.21 4.1392 433.708 4.30966C434.207 4.48011 434.661 4.7571 435.07 5.14062C435.479 5.51989 435.805 6.02273 436.048 6.64915C436.291 7.27557 436.412 8.04687 436.412 8.96307V9.60227H428.844V8.2983H434.878C434.878 7.74432 434.767 7.25 434.546 6.81534C434.328 6.38068 434.017 6.03764 433.612 5.78622C433.212 5.5348 432.739 5.40909 432.193 5.40909C431.593 5.40909 431.073 5.55824 430.634 5.85653C430.199 6.15057 429.865 6.53409 429.63 7.0071C429.396 7.48011 429.279 7.98722 429.279 8.52841V9.39773C429.279 10.1392 429.406 10.7678 429.662 11.2834C429.922 11.7947 430.282 12.1847 430.742 12.4531C431.203 12.7173 431.737 12.8494 432.347 12.8494C432.743 12.8494 433.101 12.794 433.421 12.6832C433.744 12.5682 434.024 12.3977 434.258 12.1719C434.492 11.9418 434.673 11.6562 434.801 11.3153L436.259 11.7244C436.105 12.2188 435.847 12.6534 435.485 13.0284C435.123 13.3991 434.676 13.6889 434.143 13.8977C433.61 14.1023 433.012 14.2045 432.347 14.2045ZM440.957 12.2102L440.855 12.9006C440.782 13.3864 440.671 13.9062 440.522 14.4602C440.377 15.0142 440.226 15.5362 440.068 16.0263C439.911 16.5163 439.781 16.9063 439.678 17.196H438.528C438.583 16.9233 438.656 16.5632 438.745 16.1158C438.835 15.6683 438.924 15.1676 439.014 14.6136C439.107 14.0639 439.184 13.5014 439.244 12.9261L439.32 12.2102H440.957ZM451.703 14.2301C451.081 14.2301 450.517 14.1129 450.01 13.8786C449.502 13.6399 449.1 13.2969 448.801 12.8494C448.503 12.3977 448.354 11.8523 448.354 11.2131C448.354 10.6506 448.465 10.1946 448.686 9.84517C448.908 9.49148 449.204 9.21449 449.575 9.0142C449.946 8.81392 450.355 8.66477 450.802 8.56676C451.254 8.46449 451.708 8.38352 452.164 8.32386C452.76 8.24716 453.244 8.18963 453.615 8.15128C453.99 8.10866 454.262 8.03835 454.433 7.94034C454.608 7.84233 454.695 7.67187 454.695 7.42898V7.37784C454.695 6.74716 454.522 6.2571 454.177 5.90767C453.836 5.55824 453.319 5.38352 452.624 5.38352C451.904 5.38352 451.339 5.54119 450.93 5.85653C450.521 6.17187 450.233 6.50852 450.067 6.86648L448.635 6.35511C448.891 5.75852 449.232 5.29403 449.658 4.96165C450.088 4.625 450.557 4.39062 451.064 4.25852C451.576 4.12216 452.078 4.05398 452.573 4.05398C452.888 4.05398 453.25 4.09233 453.659 4.16903C454.073 4.24148 454.471 4.39276 454.855 4.62287C455.243 4.85298 455.564 5.20028 455.82 5.66477C456.076 6.12926 456.203 6.75142 456.203 7.53125V14H454.695V12.6705H454.618C454.516 12.8835 454.346 13.1115 454.107 13.3544C453.868 13.5973 453.551 13.804 453.154 13.9744C452.758 14.1449 452.275 14.2301 451.703 14.2301ZM451.934 12.875C452.53 12.875 453.033 12.7578 453.442 12.5234C453.855 12.2891 454.167 11.9865 454.375 11.6158C454.588 11.245 454.695 10.8551 454.695 10.446V9.06534C454.631 9.14205 454.49 9.21236 454.273 9.27628C454.06 9.33594 453.813 9.3892 453.532 9.43608C453.255 9.47869 452.984 9.51705 452.72 9.55114C452.46 9.58097 452.249 9.60653 452.087 9.62784C451.695 9.67898 451.328 9.76207 450.988 9.87713C450.651 9.98793 450.378 10.1562 450.169 10.3821C449.965 10.6037 449.863 10.9062 449.863 11.2898C449.863 11.8139 450.056 12.2102 450.444 12.4787C450.836 12.7429 451.333 12.875 451.934 12.875ZM460.465 8.09375V14H458.957V4.18182H460.414V5.71591H460.542C460.772 5.21733 461.122 4.81676 461.59 4.5142C462.059 4.20739 462.664 4.05398 463.406 4.05398C464.07 4.05398 464.652 4.19034 465.151 4.46307C465.649 4.73153 466.037 5.14062 466.314 5.69034C466.591 6.2358 466.73 6.92614 466.73 7.76136V14H465.221V7.86364C465.221 7.09233 465.021 6.49148 464.62 6.06108C464.22 5.62642 463.67 5.40909 462.971 5.40909C462.49 5.40909 462.059 5.51349 461.68 5.7223C461.305 5.93111 461.009 6.2358 460.791 6.63636C460.574 7.03693 460.465 7.52273 460.465 8.09375ZM473.194 14.2045C472.375 14.2045 471.653 13.9979 471.027 13.5845C470.4 13.1669 469.91 12.5788 469.556 11.8203C469.203 11.0575 469.026 10.1562 469.026 9.11648C469.026 8.08523 469.203 7.19034 469.556 6.43182C469.91 5.6733 470.402 5.08736 471.033 4.67401C471.664 4.26065 472.392 4.05398 473.219 4.05398C473.858 4.05398 474.363 4.16051 474.734 4.37358C475.109 4.58239 475.395 4.82102 475.591 5.08949C475.791 5.35369 475.946 5.57102 476.057 5.74148H476.185V0.909091H477.694V14H476.236V12.4915H476.057C475.946 12.6705 475.789 12.8963 475.584 13.169C475.38 13.4375 475.088 13.6783 474.708 13.8913C474.329 14.1001 473.824 14.2045 473.194 14.2045ZM473.398 12.8494C474.003 12.8494 474.515 12.6918 474.932 12.3764C475.35 12.0568 475.667 11.6158 475.885 11.0533C476.102 10.4865 476.211 9.83239 476.211 9.09091C476.211 8.35795 476.104 7.71662 475.891 7.1669C475.678 6.61293 475.363 6.18253 474.945 5.87571C474.527 5.56463 474.012 5.40909 473.398 5.40909C472.759 5.40909 472.226 5.57315 471.8 5.90128C471.378 6.22514 471.061 6.66619 470.848 7.22443C470.639 7.77841 470.534 8.40057 470.534 9.09091C470.534 9.78977 470.641 10.4247 470.854 10.9957C471.071 11.5625 471.391 12.0142 471.813 12.3509C472.239 12.6832 472.767 12.8494 473.398 12.8494ZM8.33523 33.3807L6.98011 33.7642C6.89489 33.5384 6.76918 33.3189 6.60298 33.1058C6.44105 32.8885 6.21946 32.7095 5.93821 32.5689C5.65696 32.4283 5.29688 32.358 4.85795 32.358C4.2571 32.358 3.75639 32.4964 3.35582 32.7734C2.95952 33.0462 2.76136 33.3935 2.76136 33.8153C2.76136 34.1903 2.89773 34.4865 3.17045 34.7038C3.44318 34.9212 3.86932 35.1023 4.44886 35.2472L5.90625 35.6051C6.78409 35.8182 7.43821 36.1442 7.86861 36.5831C8.29901 37.0178 8.5142 37.5781 8.5142 38.2642C8.5142 38.8267 8.35227 39.3295 8.02841 39.7727C7.70881 40.2159 7.26136 40.5653 6.68608 40.821C6.1108 41.0767 5.44176 41.2045 4.67898 41.2045C3.67756 41.2045 2.84872 40.9872 2.19247 40.5526C1.53622 40.1179 1.12074 39.483 0.946023 38.6477L2.37784 38.2898C2.5142 38.8182 2.77202 39.2145 3.15128 39.4787C3.5348 39.7429 4.03551 39.875 4.65341 39.875C5.35653 39.875 5.91477 39.7259 6.32812 39.4276C6.74574 39.125 6.95455 38.7628 6.95455 38.3409C6.95455 38 6.83523 37.7145 6.59659 37.4844C6.35795 37.25 5.99148 37.0753 5.49716 36.9602L3.8608 36.5767C2.96165 36.3636 2.30114 36.0334 1.87926 35.5859C1.46165 35.1342 1.25284 34.5696 1.25284 33.892C1.25284 33.3381 1.40838 32.848 1.71946 32.4219C2.0348 31.9957 2.46307 31.6612 3.00426 31.4183C3.54972 31.1754 4.16761 31.054 4.85795 31.054C5.82955 31.054 6.59233 31.267 7.14631 31.6932C7.70455 32.1193 8.10085 32.6818 8.33523 33.3807ZM16.9725 36.9858V31.1818H18.481V41H16.9725V39.3381H16.8702C16.6401 39.8366 16.2821 40.2607 15.7963 40.6101C15.3105 40.9553 14.6969 41.1278 13.9554 41.1278C13.3418 41.1278 12.7963 40.9936 12.3191 40.7251C11.8418 40.4524 11.4668 40.0433 11.1941 39.4979C10.9213 38.9482 10.785 38.2557 10.785 37.4205V31.1818H12.2935V37.3182C12.2935 38.0341 12.4938 38.6051 12.8944 39.0312C13.2992 39.4574 13.8148 39.6705 14.4412 39.6705C14.8162 39.6705 15.1976 39.5746 15.5854 39.3828C15.9775 39.1911 16.3056 38.897 16.5698 38.5007C16.8382 38.1044 16.9725 37.5994 16.9725 36.9858ZM21.244 41V31.1818H22.7013V32.6648H22.8036C22.9826 32.179 23.3065 31.7848 23.7752 31.4822C24.244 31.1797 24.7724 31.0284 25.3604 31.0284C25.4712 31.0284 25.6097 31.0305 25.7759 31.0348C25.9421 31.0391 26.0678 31.0455 26.1531 31.054V32.5881C26.1019 32.5753 25.9847 32.5561 25.8015 32.5305C25.6225 32.5007 25.4329 32.4858 25.2326 32.4858C24.7553 32.4858 24.3292 32.5859 23.9542 32.7862C23.5835 32.9822 23.2894 33.255 23.0721 33.6044C22.859 33.9496 22.7525 34.3437 22.7525 34.7869V41H21.244ZM27.9412 44.6818V31.1818H29.3986V32.7415H29.5776C29.6884 32.571 29.8418 32.3537 30.0378 32.0895C30.2381 31.821 30.5236 31.5824 30.8944 31.3736C31.2694 31.1605 31.7765 31.054 32.4157 31.054C33.2424 31.054 33.9711 31.2607 34.6017 31.674C35.2324 32.0874 35.7246 32.6733 36.0783 33.4318C36.432 34.1903 36.6088 35.0852 36.6088 36.1165C36.6088 37.1562 36.432 38.0575 36.0783 38.8203C35.7246 39.5788 35.2346 40.1669 34.6081 40.5845C33.9817 40.9979 33.2594 41.2045 32.4412 41.2045C31.8105 41.2045 31.3056 41.1001 30.9263 40.8913C30.5471 40.6783 30.2551 40.4375 30.0506 40.169C29.8461 39.8963 29.6884 39.6705 29.5776 39.4915H29.4498V44.6818H27.9412ZM29.4242 36.0909C29.4242 36.8324 29.5328 37.4865 29.7502 38.0533C29.9675 38.6158 30.285 39.0568 30.7026 39.3764C31.1202 39.6918 31.6316 39.8494 32.2367 39.8494C32.8674 39.8494 33.3936 39.6832 33.8155 39.3509C34.2417 39.0142 34.5613 38.5625 34.7743 37.9957C34.9917 37.4247 35.1003 36.7898 35.1003 36.0909C35.1003 35.4006 34.9938 34.7784 34.7807 34.2244C34.5719 33.6662 34.2544 33.2251 33.8283 32.9013C33.4064 32.5732 32.8759 32.4091 32.2367 32.4091C31.623 32.4091 31.1074 32.5646 30.6898 32.8757C30.2722 33.1825 29.9569 33.6129 29.7438 34.1669C29.5307 34.7166 29.4242 35.358 29.4242 36.0909ZM38.91 41V31.1818H40.3674V32.6648H40.4696C40.6486 32.179 40.9725 31.7848 41.4412 31.4822C41.91 31.1797 42.4384 31.0284 43.0265 31.0284C43.1373 31.0284 43.2757 31.0305 43.4419 31.0348C43.6081 31.0391 43.7338 31.0455 43.8191 31.054V32.5881C43.7679 32.5753 43.6507 32.5561 43.4675 32.5305C43.2885 32.5007 43.0989 32.4858 42.8986 32.4858C42.4213 32.4858 41.9952 32.5859 41.6202 32.7862C41.2495 32.9822 40.9554 33.255 40.7381 33.6044C40.525 33.9496 40.4185 34.3437 40.4185 34.7869V41H38.91ZM45.6072 41V31.1818H47.1158V41H45.6072ZM46.3743 29.5455C46.0803 29.5455 45.8267 29.4453 45.6136 29.245C45.4048 29.0447 45.3004 28.804 45.3004 28.5227C45.3004 28.2415 45.4048 28.0007 45.6136 27.8004C45.8267 27.6001 46.0803 27.5 46.3743 27.5C46.6683 27.5 46.9197 27.6001 47.1286 27.8004C47.3416 28.0007 47.4482 28.2415 47.4482 28.5227C47.4482 28.804 47.3416 29.0447 47.1286 29.245C46.9197 29.4453 46.6683 29.5455 46.3743 29.5455ZM56.8333 33.3807L55.4782 33.7642C55.3929 33.5384 55.2672 33.3189 55.101 33.1058C54.9391 32.8885 54.7175 32.7095 54.4363 32.5689C54.155 32.4283 53.7949 32.358 53.356 32.358C52.7551 32.358 52.2544 32.4964 51.8539 32.7734C51.4576 33.0462 51.2594 33.3935 51.2594 33.8153C51.2594 34.1903 51.3958 34.4865 51.6685 34.7038C51.9412 34.9212 52.3674 35.1023 52.9469 35.2472L54.4043 35.6051C55.2821 35.8182 55.9363 36.1442 56.3667 36.5831C56.7971 37.0178 57.0123 37.5781 57.0123 38.2642C57.0123 38.8267 56.8503 39.3295 56.5265 39.7727C56.2069 40.2159 55.7594 40.5653 55.1841 40.821C54.6088 41.0767 53.9398 41.2045 53.177 41.2045C52.1756 41.2045 51.3468 40.9872 50.6905 40.5526C50.0343 40.1179 49.6188 39.483 49.4441 38.6477L50.8759 38.2898C51.0123 38.8182 51.2701 39.2145 51.6493 39.4787C52.0328 39.7429 52.5336 39.875 53.1515 39.875C53.8546 39.875 54.4128 39.7259 54.8262 39.4276C55.2438 39.125 55.4526 38.7628 55.4526 38.3409C55.4526 38 55.3333 37.7145 55.0946 37.4844C54.856 37.25 54.4895 37.0753 53.9952 36.9602L52.3588 36.5767C51.4597 36.3636 50.7992 36.0334 50.3773 35.5859C49.9597 35.1342 49.7509 34.5696 49.7509 33.892C49.7509 33.3381 49.9064 32.848 50.2175 32.4219C50.5328 31.9957 50.9611 31.6612 51.5023 31.4183C52.0478 31.1754 52.6657 31.054 53.356 31.054C54.3276 31.054 55.0904 31.267 55.6444 31.6932C56.2026 32.1193 56.5989 32.6818 56.8333 33.3807ZM59.283 41V31.1818H60.7915V41H59.283ZM60.0501 29.5455C59.756 29.5455 59.5025 29.4453 59.2894 29.245C59.0806 29.0447 58.9762 28.804 58.9762 28.5227C58.9762 28.2415 59.0806 28.0007 59.2894 27.8004C59.5025 27.6001 59.756 27.5 60.0501 27.5C60.3441 27.5 60.5955 27.6001 60.8043 27.8004C61.0174 28.0007 61.1239 28.2415 61.1239 28.5227C61.1239 28.804 61.0174 29.0447 60.8043 29.245C60.5955 29.4453 60.3441 29.5455 60.0501 29.5455ZM65.063 35.0938V41H63.5545V31.1818H65.0119V32.7159H65.1397C65.3699 32.2173 65.7193 31.8168 66.188 31.5142C66.6568 31.2074 67.2619 31.054 68.0034 31.054C68.6681 31.054 69.2498 31.1903 69.7484 31.4631C70.247 31.7315 70.6348 32.1406 70.9118 32.6903C71.1887 33.2358 71.3272 33.9261 71.3272 34.7614V41H69.8187V34.8636C69.8187 34.0923 69.6184 33.4915 69.2179 33.0611C68.8173 32.6264 68.2676 32.4091 67.5687 32.4091C67.0872 32.4091 66.6568 32.5135 66.2775 32.7223C65.9025 32.9311 65.6064 33.2358 65.389 33.6364C65.1717 34.0369 65.063 34.5227 65.063 35.0938ZM78.0469 44.8864C77.3182 44.8864 76.6918 44.7926 76.1676 44.6051C75.6435 44.4219 75.2067 44.179 74.8572 43.8764C74.5121 43.5781 74.2372 43.2585 74.0327 42.9176L75.2344 42.0739C75.3707 42.2528 75.5433 42.4574 75.7521 42.6875C75.9609 42.9219 76.2464 43.1243 76.6087 43.2947C76.9751 43.4695 77.4545 43.5568 78.0469 43.5568C78.8395 43.5568 79.4936 43.3651 80.0092 42.9815C80.5249 42.598 80.7827 41.9972 80.7827 41.179V39.1847H80.6548C80.544 39.3636 80.3864 39.5852 80.1818 39.8494C79.9815 40.1094 79.6918 40.3416 79.3125 40.5462C78.9375 40.7464 78.4304 40.8466 77.7912 40.8466C76.9986 40.8466 76.2869 40.6591 75.6562 40.2841C75.0298 39.9091 74.5334 39.3636 74.1669 38.6477C73.8047 37.9318 73.6236 37.0625 73.6236 36.0398C73.6236 35.0341 73.8004 34.1584 74.1541 33.4126C74.5078 32.6626 75 32.0831 75.6307 31.674C76.2614 31.2607 76.9901 31.054 77.8168 31.054C78.456 31.054 78.9631 31.1605 79.3381 31.3736C79.7173 31.5824 80.0071 31.821 80.2074 32.0895C80.4119 32.3537 80.5696 32.571 80.6804 32.7415H80.8338V31.1818H82.2912V41.2812C82.2912 42.125 82.0994 42.8111 81.7159 43.3395C81.3366 43.8722 80.8253 44.2621 80.1818 44.5092C79.5426 44.7607 78.831 44.8864 78.0469 44.8864ZM77.9957 39.4915C78.6009 39.4915 79.1122 39.353 79.5298 39.076C79.9474 38.799 80.2649 38.4006 80.4822 37.8807C80.6996 37.3608 80.8082 36.7386 80.8082 36.0142C80.8082 35.3068 80.7017 34.6825 80.4886 34.1413C80.2756 33.6001 79.9602 33.1761 79.5426 32.8693C79.125 32.5625 78.6094 32.4091 77.9957 32.4091C77.3565 32.4091 76.8239 32.571 76.3977 32.8949C75.9759 33.2187 75.6584 33.6534 75.4453 34.1989C75.2365 34.7443 75.1321 35.3494 75.1321 36.0142C75.1321 36.696 75.2386 37.299 75.4517 37.8232C75.669 38.343 75.9886 38.7521 76.4105 39.0504C76.8366 39.3445 77.3651 39.4915 77.9957 39.4915ZM86.5611 27.9091V41H85.0526V27.9091H86.5611ZM90.2956 44.6818C90.04 44.6818 89.812 44.6605 89.6117 44.6179C89.4114 44.5795 89.2729 44.5412 89.1962 44.5028L89.5797 43.1733C89.9462 43.267 90.2701 43.3011 90.5513 43.2756C90.8326 43.25 91.0819 43.1243 91.2992 42.8984C91.5208 42.6768 91.7232 42.3168 91.9064 41.8182L92.1877 41.0511L88.557 31.1818H90.1934L92.9036 39.0057H93.0059L95.7161 31.1818H97.3525L93.1848 42.4318C92.9973 42.9389 92.7651 43.3587 92.4881 43.6911C92.2111 44.0277 91.8894 44.277 91.5229 44.4389C91.1607 44.6009 90.7516 44.6818 90.2956 44.6818ZM107.295 41.2301C106.673 41.2301 106.108 41.1129 105.601 40.8786C105.094 40.6399 104.692 40.2969 104.393 39.8494C104.095 39.3977 103.946 38.8523 103.946 38.2131C103.946 37.6506 104.057 37.1946 104.278 36.8452C104.5 36.4915 104.796 36.2145 105.167 36.0142C105.537 35.8139 105.947 35.6648 106.394 35.5668C106.846 35.4645 107.3 35.3835 107.756 35.3239C108.352 35.2472 108.836 35.1896 109.206 35.1513C109.581 35.1087 109.854 35.0384 110.025 34.9403C110.199 34.8423 110.287 34.6719 110.287 34.429V34.3778C110.287 33.7472 110.114 33.2571 109.769 32.9077C109.428 32.5582 108.91 32.3835 108.216 32.3835C107.496 32.3835 106.931 32.5412 106.522 32.8565C106.113 33.1719 105.825 33.5085 105.659 33.8665L104.227 33.3551C104.483 32.7585 104.824 32.294 105.25 31.9616C105.68 31.625 106.149 31.3906 106.656 31.2585C107.167 31.1222 107.67 31.054 108.165 31.054C108.48 31.054 108.842 31.0923 109.251 31.169C109.665 31.2415 110.063 31.3928 110.447 31.6229C110.834 31.853 111.156 32.2003 111.412 32.6648C111.667 33.1293 111.795 33.7514 111.795 34.5312V41H110.287V39.6705H110.21C110.108 39.8835 109.937 40.1115 109.699 40.3544C109.46 40.5973 109.143 40.804 108.746 40.9744C108.35 41.1449 107.866 41.2301 107.295 41.2301ZM107.525 39.875C108.122 39.875 108.625 39.7578 109.034 39.5234C109.447 39.2891 109.758 38.9865 109.967 38.6158C110.18 38.245 110.287 37.8551 110.287 37.446V36.0653C110.223 36.142 110.082 36.2124 109.865 36.2763C109.652 36.3359 109.405 36.3892 109.123 36.4361C108.846 36.4787 108.576 36.517 108.312 36.5511C108.052 36.581 107.841 36.6065 107.679 36.6278C107.287 36.679 106.92 36.7621 106.579 36.8771C106.243 36.9879 105.97 37.1562 105.761 37.3821C105.557 37.6037 105.454 37.9062 105.454 38.2898C105.454 38.8139 105.648 39.2102 106.036 39.4787C106.428 39.7429 106.925 39.875 107.525 39.875ZM118.921 31.1818V32.4602H113.628V31.1818H118.921ZM115.213 41V29.8267C115.213 29.2642 115.346 28.7955 115.61 28.4205C115.874 28.0455 116.217 27.7642 116.639 27.5767C117.061 27.3892 117.506 27.2955 117.975 27.2955C118.346 27.2955 118.648 27.3253 118.882 27.3849C119.117 27.4446 119.292 27.5 119.407 27.5511L118.972 28.8551C118.895 28.8295 118.789 28.7976 118.652 28.7592C118.52 28.7209 118.346 28.7017 118.128 28.7017C117.63 28.7017 117.27 28.8274 117.048 29.0788C116.831 29.3303 116.722 29.6989 116.722 30.1847V41H115.213ZM125.407 31.1818V32.4602H120.115V31.1818H125.407ZM121.7 41V29.8267C121.7 29.2642 121.832 28.7955 122.096 28.4205C122.36 28.0455 122.703 27.7642 123.125 27.5767C123.547 27.3892 123.992 27.2955 124.461 27.2955C124.832 27.2955 125.134 27.3253 125.369 27.3849C125.603 27.4446 125.778 27.5 125.893 27.5511L125.458 28.8551C125.382 28.8295 125.275 28.7976 125.139 28.7592C125.007 28.7209 124.832 28.7017 124.615 28.7017C124.116 28.7017 123.756 28.8274 123.534 29.0788C123.317 29.3303 123.208 29.6989 123.208 30.1847V41H121.7ZM131.106 41.2045C130.219 41.2045 129.442 40.9936 128.773 40.5717C128.108 40.1499 127.588 39.5597 127.213 38.8011C126.842 38.0426 126.657 37.1562 126.657 36.142C126.657 35.1193 126.842 34.2266 127.213 33.4638C127.588 32.701 128.108 32.1087 128.773 31.6868C129.442 31.2649 130.219 31.054 131.106 31.054C131.992 31.054 132.768 31.2649 133.432 31.6868C134.101 32.1087 134.621 32.701 134.992 33.4638C135.367 34.2266 135.555 35.1193 135.555 36.142C135.555 37.1562 135.367 38.0426 134.992 38.8011C134.621 39.5597 134.101 40.1499 133.432 40.5717C132.768 40.9936 131.992 41.2045 131.106 41.2045ZM131.106 39.8494C131.779 39.8494 132.333 39.6768 132.768 39.3317C133.202 38.9865 133.524 38.5327 133.733 37.9702C133.942 37.4077 134.046 36.7983 134.046 36.142C134.046 35.4858 133.942 34.8743 133.733 34.3075C133.524 33.7408 133.202 33.2827 132.768 32.9332C132.333 32.5838 131.779 32.4091 131.106 32.4091C130.432 32.4091 129.878 32.5838 129.444 32.9332C129.009 33.2827 128.687 33.7408 128.479 34.3075C128.27 34.8743 128.165 35.4858 128.165 36.142C128.165 36.7983 128.27 37.4077 128.479 37.9702C128.687 38.5327 129.009 38.9865 129.444 39.3317C129.878 39.6768 130.432 39.8494 131.106 39.8494ZM137.857 41V31.1818H139.315V32.6648H139.417C139.596 32.179 139.92 31.7848 140.388 31.4822C140.857 31.1797 141.386 31.0284 141.974 31.0284C142.085 31.0284 142.223 31.0305 142.389 31.0348C142.555 31.0391 142.681 31.0455 142.766 31.054V32.5881C142.715 32.5753 142.598 32.5561 142.415 32.5305C142.236 32.5007 142.046 32.4858 141.846 32.4858C141.369 32.4858 140.942 32.5859 140.567 32.7862C140.197 32.9822 139.903 33.255 139.685 33.6044C139.472 33.9496 139.366 34.3437 139.366 34.7869V41H137.857ZM147.963 41.2045C147.145 41.2045 146.423 40.9979 145.796 40.5845C145.17 40.1669 144.68 39.5788 144.326 38.8203C143.972 38.0575 143.795 37.1562 143.795 36.1165C143.795 35.0852 143.972 34.1903 144.326 33.4318C144.68 32.6733 145.172 32.0874 145.803 31.674C146.433 31.2607 147.162 31.054 147.989 31.054C148.628 31.054 149.133 31.1605 149.504 31.3736C149.879 31.5824 150.164 31.821 150.36 32.0895C150.56 32.3537 150.716 32.571 150.827 32.7415H150.955V27.9091H152.463V41H151.006V39.4915H150.827C150.716 39.6705 150.558 39.8963 150.354 40.169C150.149 40.4375 149.857 40.6783 149.478 40.8913C149.099 41.1001 148.594 41.2045 147.963 41.2045ZM148.168 39.8494C148.773 39.8494 149.284 39.6918 149.702 39.3764C150.119 39.0568 150.437 38.6158 150.654 38.0533C150.871 37.4865 150.98 36.8324 150.98 36.0909C150.98 35.358 150.874 34.7166 150.661 34.1669C150.447 33.6129 150.132 33.1825 149.714 32.8757C149.297 32.5646 148.781 32.4091 148.168 32.4091C147.528 32.4091 146.996 32.5732 146.57 32.9013C146.148 33.2251 145.83 33.6662 145.617 34.2244C145.408 34.7784 145.304 35.4006 145.304 36.0909C145.304 36.7898 145.411 37.4247 145.624 37.9957C145.841 38.5625 146.161 39.0142 146.582 39.3509C147.009 39.6832 147.537 39.8494 148.168 39.8494ZM158.325 41.2301C157.702 41.2301 157.138 41.1129 156.631 40.8786C156.124 40.6399 155.721 40.2969 155.423 39.8494C155.124 39.3977 154.975 38.8523 154.975 38.2131C154.975 37.6506 155.086 37.1946 155.308 36.8452C155.529 36.4915 155.825 36.2145 156.196 36.0142C156.567 35.8139 156.976 35.6648 157.423 35.5668C157.875 35.4645 158.329 35.3835 158.785 35.3239C159.381 35.2472 159.865 35.1896 160.236 35.1513C160.611 35.1087 160.884 35.0384 161.054 34.9403C161.229 34.8423 161.316 34.6719 161.316 34.429V34.3778C161.316 33.7472 161.143 33.2571 160.798 32.9077C160.457 32.5582 159.94 32.3835 159.245 32.3835C158.525 32.3835 157.96 32.5412 157.551 32.8565C157.142 33.1719 156.854 33.5085 156.688 33.8665L155.256 33.3551C155.512 32.7585 155.853 32.294 156.279 31.9616C156.71 31.625 157.178 31.3906 157.685 31.2585C158.197 31.1222 158.7 31.054 159.194 31.054C159.509 31.054 159.871 31.0923 160.281 31.169C160.694 31.2415 161.092 31.3928 161.476 31.6229C161.864 31.853 162.185 32.2003 162.441 32.6648C162.697 33.1293 162.825 33.7514 162.825 34.5312V41H161.316V39.6705H161.239C161.137 39.8835 160.967 40.1115 160.728 40.3544C160.489 40.5973 160.172 40.804 159.776 40.9744C159.379 41.1449 158.896 41.2301 158.325 41.2301ZM158.555 39.875C159.151 39.875 159.654 39.7578 160.063 39.5234C160.477 39.2891 160.788 38.9865 160.996 38.6158C161.21 38.245 161.316 37.8551 161.316 37.446V36.0653C161.252 36.142 161.112 36.2124 160.894 36.2763C160.681 36.3359 160.434 36.3892 160.153 36.4361C159.876 36.4787 159.605 36.517 159.341 36.5511C159.081 36.581 158.87 36.6065 158.708 36.6278C158.316 36.679 157.95 36.7621 157.609 36.8771C157.272 36.9879 156.999 37.1562 156.79 37.3821C156.586 37.6037 156.484 37.9062 156.484 38.2898C156.484 38.8139 156.678 39.2102 157.065 39.4787C157.457 39.7429 157.954 39.875 158.555 39.875ZM165.782 41V27.9091H167.291V32.7415H167.419C167.53 32.571 167.683 32.3537 167.879 32.0895C168.079 31.821 168.365 31.5824 168.736 31.3736C169.111 31.1605 169.618 31.054 170.257 31.054C171.084 31.054 171.812 31.2607 172.443 31.674C173.074 32.0874 173.566 32.6733 173.92 33.4318C174.273 34.1903 174.45 35.0852 174.45 36.1165C174.45 37.1562 174.273 38.0575 173.92 38.8203C173.566 39.5788 173.076 40.1669 172.449 40.5845C171.823 40.9979 171.101 41.2045 170.282 41.2045C169.652 41.2045 169.147 41.1001 168.768 40.8913C168.388 40.6783 168.096 40.4375 167.892 40.169C167.687 39.8963 167.53 39.6705 167.419 39.4915H167.24V41H165.782ZM167.265 36.0909C167.265 36.8324 167.374 37.4865 167.591 38.0533C167.809 38.6158 168.126 39.0568 168.544 39.3764C168.961 39.6918 169.473 39.8494 170.078 39.8494C170.709 39.8494 171.235 39.6832 171.657 39.3509C172.083 39.0142 172.403 38.5625 172.616 37.9957C172.833 37.4247 172.942 36.7898 172.942 36.0909C172.942 35.4006 172.835 34.7784 172.622 34.2244C172.413 33.6662 172.096 33.2251 171.67 32.9013C171.248 32.5732 170.717 32.4091 170.078 32.4091C169.464 32.4091 168.949 32.5646 168.531 32.8757C168.113 33.1825 167.798 33.6129 167.585 34.1669C167.372 34.7166 167.265 35.358 167.265 36.0909ZM178.266 27.9091V41H176.758V27.9091H178.266ZM185.146 41.2045C184.2 41.2045 183.384 40.9957 182.697 40.5781C182.016 40.1562 181.489 39.5682 181.119 38.8139C180.752 38.0554 180.569 37.1733 180.569 36.1676C180.569 35.1619 180.752 34.2756 181.119 33.5085C181.489 32.7372 182.005 32.1364 182.665 31.706C183.33 31.2713 184.106 31.054 184.992 31.054C185.504 31.054 186.009 31.1392 186.507 31.3097C187.006 31.4801 187.46 31.7571 187.869 32.1406C188.278 32.5199 188.604 33.0227 188.847 33.6491C189.089 34.2756 189.211 35.0469 189.211 35.9631V36.6023H181.643V35.2983H187.677C187.677 34.7443 187.566 34.25 187.344 33.8153C187.127 33.3807 186.816 33.0376 186.411 32.7862C186.011 32.5348 185.538 32.4091 184.992 32.4091C184.391 32.4091 183.871 32.5582 183.433 32.8565C182.998 33.1506 182.663 33.5341 182.429 34.0071C182.195 34.4801 182.077 34.9872 182.077 35.5284V36.3977C182.077 37.1392 182.205 37.7678 182.461 38.2834C182.721 38.7947 183.081 39.1847 183.541 39.4531C184.001 39.7173 184.536 39.8494 185.146 39.8494C185.542 39.8494 185.9 39.794 186.219 39.6832C186.543 39.5682 186.822 39.3977 187.057 39.1719C187.291 38.9418 187.472 38.6562 187.6 38.3153L189.058 38.7244C188.904 39.2188 188.646 39.6534 188.284 40.0284C187.922 40.3991 187.474 40.6889 186.942 40.8977C186.409 41.1023 185.81 41.2045 185.146 41.2045ZM192.605 41.1023C192.29 41.1023 192.019 40.9893 191.793 40.7635C191.567 40.5376 191.455 40.267 191.455 39.9517C191.455 39.6364 191.567 39.3658 191.793 39.1399C192.019 38.9141 192.29 38.8011 192.605 38.8011C192.92 38.8011 193.191 38.9141 193.417 39.1399C193.643 39.3658 193.756 39.6364 193.756 39.9517C193.756 40.1605 193.702 40.3523 193.596 40.527C193.494 40.7017 193.355 40.8423 193.18 40.9489C193.01 41.0511 192.818 41.1023 192.605 41.1023ZM201.73 41V27.9091H203.315V33.7386H210.295V27.9091H211.88V41H210.295V35.1449H203.315V41H201.73ZM217.739 41.2301C217.116 41.2301 216.552 41.1129 216.045 40.8786C215.538 40.6399 215.135 40.2969 214.837 39.8494C214.538 39.3977 214.389 38.8523 214.389 38.2131C214.389 37.6506 214.5 37.1946 214.722 36.8452C214.943 36.4915 215.239 36.2145 215.61 36.0142C215.981 35.8139 216.39 35.6648 216.837 35.5668C217.289 35.4645 217.743 35.3835 218.199 35.3239C218.795 35.2472 219.279 35.1896 219.65 35.1513C220.025 35.1087 220.298 35.0384 220.468 34.9403C220.643 34.8423 220.73 34.6719 220.73 34.429V34.3778C220.73 33.7472 220.558 33.2571 220.212 32.9077C219.871 32.5582 219.354 32.3835 218.659 32.3835C217.939 32.3835 217.374 32.5412 216.965 32.8565C216.556 33.1719 216.268 33.5085 216.102 33.8665L214.67 33.3551C214.926 32.7585 215.267 32.294 215.693 31.9616C216.124 31.625 216.592 31.3906 217.099 31.2585C217.611 31.1222 218.114 31.054 218.608 31.054C218.923 31.054 219.286 31.0923 219.695 31.169C220.108 31.2415 220.506 31.3928 220.89 31.6229C221.278 31.853 221.599 32.2003 221.855 32.6648C222.111 33.1293 222.239 33.7514 222.239 34.5312V41H220.73V39.6705H220.653C220.551 39.8835 220.381 40.1115 220.142 40.3544C219.903 40.5973 219.586 40.804 219.19 40.9744C218.793 41.1449 218.31 41.2301 217.739 41.2301ZM217.969 39.875C218.565 39.875 219.068 39.7578 219.477 39.5234C219.891 39.2891 220.202 38.9865 220.411 38.6158C220.624 38.245 220.73 37.8551 220.73 37.446V36.0653C220.666 36.142 220.526 36.2124 220.308 36.2763C220.095 36.3359 219.848 36.3892 219.567 36.4361C219.29 36.4787 219.019 36.517 218.755 36.5511C218.495 36.581 218.284 36.6065 218.122 36.6278C217.73 36.679 217.364 36.7621 217.023 36.8771C216.686 36.9879 216.413 37.1562 216.205 37.3821C216 37.6037 215.898 37.9062 215.898 38.2898C215.898 38.8139 216.092 39.2102 216.479 39.4787C216.871 39.7429 217.368 39.875 217.969 39.875ZM224.992 41V31.1818H226.449V32.6648H226.552C226.731 32.179 227.055 31.7848 227.523 31.4822C227.992 31.1797 228.52 31.0284 229.108 31.0284C229.219 31.0284 229.358 31.0305 229.524 31.0348C229.69 31.0391 229.816 31.0455 229.901 31.054V32.5881C229.85 32.5753 229.733 32.5561 229.55 32.5305C229.371 32.5007 229.181 32.4858 228.981 32.4858C228.503 32.4858 228.077 32.5859 227.702 32.7862C227.331 32.9822 227.037 33.255 226.82 33.6044C226.607 33.9496 226.501 34.3437 226.501 34.7869V41H224.992ZM233.198 35.0938V41H231.689V31.1818H233.147V32.7159H233.275C233.505 32.2173 233.854 31.8168 234.323 31.5142C234.792 31.2074 235.397 31.054 236.138 31.054C236.803 31.054 237.385 31.1903 237.883 31.4631C238.382 31.7315 238.77 32.1406 239.047 32.6903C239.324 33.2358 239.462 33.9261 239.462 34.7614V41H237.953V34.8636C237.953 34.0923 237.753 33.4915 237.353 33.0611C236.952 32.6264 236.402 32.4091 235.703 32.4091C235.222 32.4091 234.792 32.5135 234.412 32.7223C234.037 32.9311 233.741 33.2358 233.524 33.6364C233.306 34.0369 233.198 34.5227 233.198 35.0938ZM246.335 41.2045C245.389 41.2045 244.573 40.9957 243.887 40.5781C243.205 40.1562 242.679 39.5682 242.308 38.8139C241.942 38.0554 241.758 37.1733 241.758 36.1676C241.758 35.1619 241.942 34.2756 242.308 33.5085C242.679 32.7372 243.194 32.1364 243.855 31.706C244.52 31.2713 245.295 31.054 246.182 31.054C246.693 31.054 247.198 31.1392 247.697 31.3097C248.195 31.4801 248.649 31.7571 249.058 32.1406C249.467 32.5199 249.793 33.0227 250.036 33.6491C250.279 34.2756 250.4 35.0469 250.4 35.9631V36.6023H242.832V35.2983H248.866C248.866 34.7443 248.756 34.25 248.534 33.8153C248.317 33.3807 248.006 33.0376 247.601 32.7862C247.2 32.5348 246.727 32.4091 246.182 32.4091C245.581 32.4091 245.061 32.5582 244.622 32.8565C244.187 33.1506 243.853 33.5341 243.618 34.0071C243.384 34.4801 243.267 34.9872 243.267 35.5284V36.3977C243.267 37.1392 243.395 37.7678 243.65 38.2834C243.91 38.7947 244.27 39.1847 244.731 39.4531C245.191 39.7173 245.726 39.8494 246.335 39.8494C246.731 39.8494 247.089 39.794 247.409 39.6832C247.733 39.5682 248.012 39.3977 248.246 39.1719C248.481 38.9418 248.662 38.6562 248.79 38.3153L250.247 38.7244C250.094 39.2188 249.836 39.6534 249.474 40.0284C249.111 40.3991 248.664 40.6889 248.131 40.8977C247.599 41.1023 247 41.2045 246.335 41.2045ZM259.65 33.3807L258.295 33.7642C258.209 33.5384 258.084 33.3189 257.917 33.1058C257.756 32.8885 257.534 32.7095 257.253 32.5689C256.971 32.4283 256.611 32.358 256.172 32.358C255.572 32.358 255.071 32.4964 254.67 32.7734C254.274 33.0462 254.076 33.3935 254.076 33.8153C254.076 34.1903 254.212 34.4865 254.485 34.7038C254.758 34.9212 255.184 35.1023 255.763 35.2472L257.221 35.6051C258.099 35.8182 258.753 36.1442 259.183 36.5831C259.613 37.0178 259.829 37.5781 259.829 38.2642C259.829 38.8267 259.667 39.3295 259.343 39.7727C259.023 40.2159 258.576 40.5653 258.001 40.821C257.425 41.0767 256.756 41.2045 255.993 41.2045C254.992 41.2045 254.163 40.9872 253.507 40.5526C252.851 40.1179 252.435 39.483 252.26 38.6477L253.692 38.2898C253.829 38.8182 254.086 39.2145 254.466 39.4787C254.849 39.7429 255.35 39.875 255.968 39.875C256.671 39.875 257.229 39.7259 257.643 39.4276C258.06 39.125 258.269 38.7628 258.269 38.3409C258.269 38 258.15 37.7145 257.911 37.4844C257.672 37.25 257.306 37.0753 256.812 36.9602L255.175 36.5767C254.276 36.3636 253.616 36.0334 253.194 35.5859C252.776 35.1342 252.567 34.5696 252.567 33.892C252.567 33.3381 252.723 32.848 253.034 32.4219C253.349 31.9957 253.778 31.6612 254.319 31.4183C254.864 31.1754 255.482 31.054 256.172 31.054C257.144 31.054 257.907 31.267 258.461 31.6932C259.019 32.1193 259.415 32.6818 259.65 33.3807ZM269.054 33.3807L267.699 33.7642C267.614 33.5384 267.488 33.3189 267.322 33.1058C267.16 32.8885 266.938 32.7095 266.657 32.5689C266.376 32.4283 266.016 32.358 265.577 32.358C264.976 32.358 264.475 32.4964 264.075 32.7734C263.678 33.0462 263.48 33.3935 263.48 33.8153C263.48 34.1903 263.616 34.4865 263.889 34.7038C264.162 34.9212 264.588 35.1023 265.168 35.2472L266.625 35.6051C267.503 35.8182 268.157 36.1442 268.587 36.5831C269.018 37.0178 269.233 37.5781 269.233 38.2642C269.233 38.8267 269.071 39.3295 268.747 39.7727C268.428 40.2159 267.98 40.5653 267.405 40.821C266.83 41.0767 266.161 41.2045 265.398 41.2045C264.396 41.2045 263.567 40.9872 262.911 40.5526C262.255 40.1179 261.839 39.483 261.665 38.6477L263.097 38.2898C263.233 38.8182 263.491 39.2145 263.87 39.4787C264.254 39.7429 264.754 39.875 265.372 39.875C266.075 39.875 266.634 39.7259 267.047 39.4276C267.464 39.125 267.673 38.7628 267.673 38.3409C267.673 38 267.554 37.7145 267.315 37.4844C267.077 37.25 266.71 37.0753 266.216 36.9602L264.58 36.5767C263.68 36.3636 263.02 36.0334 262.598 35.5859C262.18 35.1342 261.972 34.5696 261.972 33.892C261.972 33.3381 262.127 32.848 262.438 32.4219C262.754 31.9957 263.182 31.6612 263.723 31.4183C264.268 31.1754 264.886 31.054 265.577 31.054C266.548 31.054 267.311 31.267 267.865 31.6932C268.423 32.1193 268.82 32.6818 269.054 33.3807ZM271.504 41V31.1818H273.012V41H271.504ZM272.271 29.5455C271.977 29.5455 271.723 29.4453 271.51 29.245C271.301 29.0447 271.197 28.804 271.197 28.5227C271.197 28.2415 271.301 28.0007 271.51 27.8004C271.723 27.6001 271.977 27.5 272.271 27.5C272.565 27.5 272.816 27.6001 273.025 27.8004C273.238 28.0007 273.345 28.2415 273.345 28.5227C273.345 28.804 273.238 29.0447 273.025 29.245C272.816 29.4453 272.565 29.5455 272.271 29.5455ZM277.284 35.0938V41H275.775V31.1818H277.233V32.7159H277.36C277.591 32.2173 277.94 31.8168 278.409 31.5142C278.877 31.2074 279.483 31.054 280.224 31.054C280.889 31.054 281.471 31.1903 281.969 31.4631C282.468 31.7315 282.855 32.1406 283.132 32.6903C283.409 33.2358 283.548 33.9261 283.548 34.7614V41H282.039V34.8636C282.039 34.0923 281.839 33.4915 281.439 33.0611C281.038 32.6264 280.488 32.4091 279.789 32.4091C279.308 32.4091 278.877 32.5135 278.498 32.7223C278.123 32.9311 277.827 33.2358 277.61 33.6364C277.392 34.0369 277.284 34.5227 277.284 35.0938ZM290.268 44.8864C289.539 44.8864 288.912 44.7926 288.388 44.6051C287.864 44.4219 287.427 44.179 287.078 43.8764C286.733 43.5781 286.458 43.2585 286.253 42.9176L287.455 42.0739C287.591 42.2528 287.764 42.4574 287.973 42.6875C288.182 42.9219 288.467 43.1243 288.829 43.2947C289.196 43.4695 289.675 43.5568 290.268 43.5568C291.06 43.5568 291.714 43.3651 292.23 42.9815C292.746 42.598 293.003 41.9972 293.003 41.179V39.1847H292.876C292.765 39.3636 292.607 39.5852 292.403 39.8494C292.202 40.1094 291.912 40.3416 291.533 40.5462C291.158 40.7464 290.651 40.8466 290.012 40.8466C289.219 40.8466 288.508 40.6591 287.877 40.2841C287.251 39.9091 286.754 39.3636 286.388 38.6477C286.025 37.9318 285.844 37.0625 285.844 36.0398C285.844 35.0341 286.021 34.1584 286.375 33.4126C286.729 32.6626 287.221 32.0831 287.851 31.674C288.482 31.2607 289.211 31.054 290.037 31.054C290.677 31.054 291.184 31.1605 291.559 31.3736C291.938 31.5824 292.228 31.821 292.428 32.0895C292.633 32.3537 292.79 32.571 292.901 32.7415H293.055V31.1818H294.512V41.2812C294.512 42.125 294.32 42.8111 293.937 43.3395C293.557 43.8722 293.046 44.2621 292.403 44.5092C291.763 44.7607 291.052 44.8864 290.268 44.8864ZM290.216 39.4915C290.822 39.4915 291.333 39.353 291.751 39.076C292.168 38.799 292.486 38.4006 292.703 37.8807C292.92 37.3608 293.029 36.7386 293.029 36.0142C293.029 35.3068 292.922 34.6825 292.709 34.1413C292.496 33.6001 292.181 33.1761 291.763 32.8693C291.346 32.5625 290.83 32.4091 290.216 32.4091C289.577 32.4091 289.045 32.571 288.618 32.8949C288.197 33.2187 287.879 33.6534 287.666 34.1989C287.457 34.7443 287.353 35.3494 287.353 36.0142C287.353 36.696 287.459 37.299 287.672 37.8232C287.89 38.343 288.209 38.7521 288.631 39.0504C289.057 39.3445 289.586 39.4915 290.216 39.4915ZM306.606 31.1818V32.4602H301.518V31.1818H306.606ZM303.001 28.8295H304.509V38.1875C304.509 38.6136 304.571 38.9332 304.694 39.1463C304.822 39.3551 304.984 39.4957 305.18 39.5682C305.381 39.6364 305.591 39.6705 305.813 39.6705C305.979 39.6705 306.116 39.6619 306.222 39.6449C306.329 39.6236 306.414 39.6065 306.478 39.5938L306.785 40.9489C306.682 40.9872 306.54 41.0256 306.356 41.0639C306.173 41.1065 305.941 41.1278 305.66 41.1278C305.233 41.1278 304.816 41.0362 304.407 40.853C304.002 40.6697 303.665 40.3906 303.397 40.0156C303.133 39.6406 303.001 39.1676 303.001 38.5966V28.8295ZM310.594 35.0938V41H309.086V27.9091H310.594V32.7159H310.722C310.952 32.2088 311.297 31.8061 311.758 31.5078C312.222 31.2053 312.84 31.054 313.611 31.054C314.28 31.054 314.866 31.1882 315.369 31.4567C315.872 31.7209 316.262 32.1278 316.539 32.6776C316.82 33.223 316.961 33.9176 316.961 34.7614V41H315.452V34.8636C315.452 34.0838 315.25 33.4808 314.845 33.0547C314.444 32.6243 313.888 32.4091 313.177 32.4091C312.682 32.4091 312.239 32.5135 311.847 32.7223C311.459 32.9311 311.153 33.2358 310.927 33.6364C310.705 34.0369 310.594 34.5227 310.594 35.0938ZM323.837 41.2045C322.891 41.2045 322.075 40.9957 321.389 40.5781C320.707 40.1562 320.181 39.5682 319.81 38.8139C319.444 38.0554 319.26 37.1733 319.26 36.1676C319.26 35.1619 319.444 34.2756 319.81 33.5085C320.181 32.7372 320.696 32.1364 321.357 31.706C322.022 31.2713 322.797 31.054 323.684 31.054C324.195 31.054 324.7 31.1392 325.199 31.3097C325.697 31.4801 326.151 31.7571 326.56 32.1406C326.969 32.5199 327.295 33.0227 327.538 33.6491C327.781 34.2756 327.902 35.0469 327.902 35.9631V36.6023H320.334V35.2983H326.368C326.368 34.7443 326.257 34.25 326.036 33.8153C325.819 33.3807 325.507 33.0376 325.103 32.7862C324.702 32.5348 324.229 32.4091 323.684 32.4091C323.083 32.4091 322.563 32.5582 322.124 32.8565C321.689 33.1506 321.355 33.5341 321.12 34.0071C320.886 34.4801 320.769 34.9872 320.769 35.5284V36.3977C320.769 37.1392 320.897 37.7678 321.152 38.2834C321.412 38.7947 321.772 39.1847 322.233 39.4531C322.693 39.7173 323.228 39.8494 323.837 39.8494C324.233 39.8494 324.591 39.794 324.911 39.6832C325.235 39.5682 325.514 39.3977 325.748 39.1719C325.983 38.9418 326.164 38.6562 326.292 38.3153L327.749 38.7244C327.596 39.2188 327.338 39.6534 326.975 40.0284C326.613 40.3991 326.166 40.6889 325.633 40.8977C325.1 41.1023 324.502 41.2045 323.837 41.2045ZM337.484 41L334.493 31.1818H336.078L338.2 38.6989H338.302L340.399 31.1818H342.01L344.081 38.6733H344.183L346.305 31.1818H347.89L344.899 41H343.416L341.268 33.4574H341.115L338.967 41H337.484ZM353.667 41.2045C352.721 41.2045 351.905 40.9957 351.219 40.5781C350.537 40.1562 350.011 39.5682 349.64 38.8139C349.274 38.0554 349.09 37.1733 349.09 36.1676C349.09 35.1619 349.274 34.2756 349.64 33.5085C350.011 32.7372 350.526 32.1364 351.187 31.706C351.852 31.2713 352.627 31.054 353.514 31.054C354.025 31.054 354.53 31.1392 355.029 31.3097C355.527 31.4801 355.981 31.7571 356.39 32.1406C356.799 32.5199 357.125 33.0227 357.368 33.6491C357.611 34.2756 357.732 35.0469 357.732 35.9631V36.6023H350.164V35.2983H356.198C356.198 34.7443 356.088 34.25 355.866 33.8153C355.649 33.3807 355.338 33.0376 354.933 32.7862C354.532 32.5348 354.059 32.4091 353.514 32.4091C352.913 32.4091 352.393 32.5582 351.954 32.8565C351.519 33.1506 351.185 33.5341 350.95 34.0071C350.716 34.4801 350.599 34.9872 350.599 35.5284V36.3977C350.599 37.1392 350.727 37.7678 350.982 38.2834C351.242 38.7947 351.602 39.1847 352.063 39.4531C352.523 39.7173 353.058 39.8494 353.667 39.8494C354.063 39.8494 354.421 39.794 354.741 39.6832C355.065 39.5682 355.344 39.3977 355.578 39.1719C355.813 38.9418 355.994 38.6562 356.122 38.3153L357.579 38.7244C357.426 39.2188 357.168 39.6534 356.806 40.0284C356.443 40.3991 355.996 40.6889 355.463 40.8977C354.931 41.1023 354.332 41.2045 353.667 41.2045ZM360.232 41V27.9091H361.74V32.7415H361.868C361.979 32.571 362.132 32.3537 362.328 32.0895C362.529 31.821 362.814 31.5824 363.185 31.3736C363.56 31.1605 364.067 31.054 364.706 31.054C365.533 31.054 366.262 31.2607 366.892 31.674C367.523 32.0874 368.015 32.6733 368.369 33.4318C368.722 34.1903 368.899 35.0852 368.899 36.1165C368.899 37.1562 368.722 38.0575 368.369 38.8203C368.015 39.5788 367.525 40.1669 366.899 40.5845C366.272 40.9979 365.55 41.2045 364.732 41.2045C364.101 41.2045 363.596 41.1001 363.217 40.8913C362.838 40.6783 362.546 40.4375 362.341 40.169C362.137 39.8963 361.979 39.6705 361.868 39.4915H361.689V41H360.232ZM361.715 36.0909C361.715 36.8324 361.823 37.4865 362.041 38.0533C362.258 38.6158 362.575 39.0568 362.993 39.3764C363.411 39.6918 363.922 39.8494 364.527 39.8494C365.158 39.8494 365.684 39.6832 366.106 39.3509C366.532 39.0142 366.852 38.5625 367.065 37.9957C367.282 37.4247 367.391 36.7898 367.391 36.0909C367.391 35.4006 367.284 34.7784 367.071 34.2244C366.862 33.6662 366.545 33.2251 366.119 32.9013C365.697 32.5732 365.166 32.4091 364.527 32.4091C363.914 32.4091 363.398 32.5646 362.98 32.8757C362.563 33.1825 362.247 33.6129 362.034 34.1669C361.821 34.7166 361.715 35.358 361.715 36.0909ZM377.778 35.0938V41H376.269V27.9091H377.778V32.7159H377.906C378.136 32.2088 378.481 31.8061 378.941 31.5078C379.406 31.2053 380.024 31.054 380.795 31.054C381.464 31.054 382.05 31.1882 382.553 31.4567C383.056 31.7209 383.445 32.1278 383.722 32.6776C384.004 33.223 384.144 33.9176 384.144 34.7614V41H382.636V34.8636C382.636 34.0838 382.433 33.4808 382.029 33.0547C381.628 32.6243 381.072 32.4091 380.36 32.4091C379.866 32.4091 379.423 32.5135 379.031 32.7223C378.643 32.9311 378.336 33.2358 378.11 33.6364C377.889 34.0369 377.778 34.5227 377.778 35.0938ZM389.793 41.2301C389.171 41.2301 388.607 41.1129 388.099 40.8786C387.592 40.6399 387.19 40.2969 386.891 39.8494C386.593 39.3977 386.444 38.8523 386.444 38.2131C386.444 37.6506 386.555 37.1946 386.776 36.8452C386.998 36.4915 387.294 36.2145 387.665 36.0142C388.036 35.8139 388.445 35.6648 388.892 35.5668C389.344 35.4645 389.798 35.3835 390.254 35.3239C390.85 35.2472 391.334 35.1896 391.705 35.1513C392.08 35.1087 392.352 35.0384 392.523 34.9403C392.697 34.8423 392.785 34.6719 392.785 34.429V34.3778C392.785 33.7472 392.612 33.2571 392.267 32.9077C391.926 32.5582 391.408 32.3835 390.714 32.3835C389.994 32.3835 389.429 32.5412 389.02 32.8565C388.611 33.1719 388.323 33.5085 388.157 33.8665L386.725 33.3551C386.981 32.7585 387.322 32.294 387.748 31.9616C388.178 31.625 388.647 31.3906 389.154 31.2585C389.665 31.1222 390.168 31.054 390.663 31.054C390.978 31.054 391.34 31.0923 391.749 31.169C392.163 31.2415 392.561 31.3928 392.945 31.6229C393.332 31.853 393.654 32.2003 393.91 32.6648C394.165 33.1293 394.293 33.7514 394.293 34.5312V41H392.785V39.6705H392.708C392.606 39.8835 392.435 40.1115 392.197 40.3544C391.958 40.5973 391.641 40.804 391.244 40.9744C390.848 41.1449 390.364 41.2301 389.793 41.2301ZM390.023 39.875C390.62 39.875 391.123 39.7578 391.532 39.5234C391.945 39.2891 392.256 38.9865 392.465 38.6158C392.678 38.245 392.785 37.8551 392.785 37.446V36.0653C392.721 36.142 392.58 36.2124 392.363 36.2763C392.15 36.3359 391.903 36.3892 391.621 36.4361C391.344 36.4787 391.074 36.517 390.81 36.5511C390.55 36.581 390.339 36.6065 390.177 36.6278C389.785 36.679 389.418 36.7621 389.077 36.8771C388.741 36.9879 388.468 37.1562 388.259 37.3821C388.055 37.6037 387.952 37.9062 387.952 38.2898C387.952 38.8139 388.146 39.2102 388.534 39.4787C388.926 39.7429 389.423 39.875 390.023 39.875ZM404.001 33.3807L402.646 33.7642C402.561 33.5384 402.435 33.3189 402.269 33.1058C402.107 32.8885 401.885 32.7095 401.604 32.5689C401.323 32.4283 400.963 32.358 400.524 32.358C399.923 32.358 399.422 32.4964 399.022 32.7734C398.626 33.0462 398.427 33.3935 398.427 33.8153C398.427 34.1903 398.564 34.4865 398.836 34.7038C399.109 34.9212 399.535 35.1023 400.115 35.2472L401.572 35.6051C402.45 35.8182 403.104 36.1442 403.535 36.5831C403.965 37.0178 404.18 37.5781 404.18 38.2642C404.18 38.8267 404.018 39.3295 403.694 39.7727C403.375 40.2159 402.927 40.5653 402.352 40.821C401.777 41.0767 401.108 41.2045 400.345 41.2045C399.344 41.2045 398.515 40.9872 397.858 40.5526C397.202 40.1179 396.787 39.483 396.612 38.6477L398.044 38.2898C398.18 38.8182 398.438 39.2145 398.817 39.4787C399.201 39.7429 399.702 39.875 400.319 39.875C401.023 39.875 401.581 39.7259 401.994 39.4276C402.412 39.125 402.621 38.7628 402.621 38.3409C402.621 38 402.501 37.7145 402.263 37.4844C402.024 37.25 401.657 37.0753 401.163 36.9602L399.527 36.5767C398.628 36.3636 397.967 36.0334 397.545 35.5859C397.128 35.1342 396.919 34.5696 396.919 33.892C396.919 33.3381 397.074 32.848 397.385 32.4219C397.701 31.9957 398.129 31.6612 398.67 31.4183C399.216 31.1754 399.834 31.054 400.524 31.054C401.496 31.054 402.258 31.267 402.812 31.6932C403.371 32.1193 403.767 32.6818 404.001 33.3807ZM413.022 35.0938V41H411.513V31.1818H412.971V32.7159H413.099C413.329 32.2173 413.678 31.8168 414.147 31.5142C414.616 31.2074 415.221 31.054 415.962 31.054C416.627 31.054 417.209 31.1903 417.707 31.4631C418.206 31.7315 418.594 32.1406 418.871 32.6903C419.148 33.2358 419.286 33.9261 419.286 34.7614V41H417.778V34.8636C417.778 34.0923 417.577 33.4915 417.177 33.0611C416.776 32.6264 416.227 32.4091 415.528 32.4091C415.046 32.4091 414.616 32.5135 414.237 32.7223C413.862 32.9311 413.565 33.2358 413.348 33.6364C413.131 34.0369 413.022 34.5227 413.022 35.0938ZM426.159 41.2045C425.213 41.2045 424.397 40.9957 423.711 40.5781C423.029 40.1562 422.503 39.5682 422.132 38.8139C421.766 38.0554 421.583 37.1733 421.583 36.1676C421.583 35.1619 421.766 34.2756 422.132 33.5085C422.503 32.7372 423.019 32.1364 423.679 31.706C424.344 31.2713 425.119 31.054 426.006 31.054C426.517 31.054 427.022 31.1392 427.521 31.3097C428.019 31.4801 428.473 31.7571 428.882 32.1406C429.291 32.5199 429.617 33.0227 429.86 33.6491C430.103 34.2756 430.225 35.0469 430.225 35.9631V36.6023H422.656V35.2983H428.691C428.691 34.7443 428.58 34.25 428.358 33.8153C428.141 33.3807 427.83 33.0376 427.425 32.7862C427.024 32.5348 426.551 32.4091 426.006 32.4091C425.405 32.4091 424.885 32.5582 424.446 32.8565C424.012 33.1506 423.677 33.5341 423.443 34.0071C423.208 34.4801 423.091 34.9872 423.091 35.5284V36.3977C423.091 37.1392 423.219 37.7678 423.475 38.2834C423.735 38.7947 424.095 39.1847 424.555 39.4531C425.015 39.7173 425.55 39.8494 426.159 39.8494C426.556 39.8494 426.914 39.794 427.233 39.6832C427.557 39.5682 427.836 39.3977 428.07 39.1719C428.305 38.9418 428.486 38.6562 428.614 38.3153L430.071 38.7244C429.918 39.2188 429.66 39.6534 429.298 40.0284C428.936 40.3991 428.488 40.6889 427.955 40.8977C427.423 41.1023 426.824 41.2045 426.159 41.2045ZM440.249 31.1818L436.618 41H435.084L431.453 31.1818H433.09L435.8 39.0057H435.902L438.613 31.1818H440.249ZM446.005 41.2045C445.059 41.2045 444.243 40.9957 443.557 40.5781C442.875 40.1562 442.349 39.5682 441.978 38.8139C441.612 38.0554 441.428 37.1733 441.428 36.1676C441.428 35.1619 441.612 34.2756 441.978 33.5085C442.349 32.7372 442.864 32.1364 443.525 31.706C444.19 31.2713 444.965 31.054 445.852 31.054C446.363 31.054 446.868 31.1392 447.366 31.3097C447.865 31.4801 448.319 31.7571 448.728 32.1406C449.137 32.5199 449.463 33.0227 449.706 33.6491C449.949 34.2756 450.07 35.0469 450.07 35.9631V36.6023H442.502V35.2983H448.536C448.536 34.7443 448.425 34.25 448.204 33.8153C447.987 33.3807 447.675 33.0376 447.271 32.7862C446.87 32.5348 446.397 32.4091 445.852 32.4091C445.251 32.4091 444.731 32.5582 444.292 32.8565C443.857 33.1506 443.523 33.5341 443.288 34.0071C443.054 34.4801 442.937 34.9872 442.937 35.5284V36.3977C442.937 37.1392 443.065 37.7678 443.32 38.2834C443.58 38.7947 443.94 39.1847 444.401 39.4531C444.861 39.7173 445.396 39.8494 446.005 39.8494C446.401 39.8494 446.759 39.794 447.079 39.6832C447.403 39.5682 447.682 39.3977 447.916 39.1719C448.151 38.9418 448.332 38.6562 448.46 38.3153L449.917 38.7244C449.763 39.2188 449.506 39.6534 449.143 40.0284C448.781 40.3991 448.334 40.6889 447.801 40.8977C447.268 41.1023 446.67 41.2045 446.005 41.2045ZM452.365 41V31.1818H453.822V32.6648H453.925C454.104 32.179 454.428 31.7848 454.896 31.4822C455.365 31.1797 455.893 31.0284 456.482 31.0284C456.592 31.0284 456.731 31.0305 456.897 31.0348C457.063 31.0391 457.189 31.0455 457.274 31.054V32.5881C457.223 32.5753 457.106 32.5561 456.923 32.5305C456.744 32.5007 456.554 32.4858 456.354 32.4858C455.876 32.4858 455.45 32.5859 455.075 32.7862C454.705 32.9822 454.411 33.255 454.193 33.6044C453.98 33.9496 453.874 34.3437 453.874 34.7869V41H452.365ZM1.58523 68V54.9091H3.09375V59.7415H3.22159C3.33239 59.571 3.4858 59.3537 3.68182 59.0895C3.8821 58.821 4.16761 58.5824 4.53835 58.3736C4.91335 58.1605 5.42045 58.054 6.05966 58.054C6.88636 58.054 7.61506 58.2607 8.24574 58.674C8.87642 59.0874 9.36861 59.6733 9.7223 60.4318C10.076 61.1903 10.2528 62.0852 10.2528 63.1165C10.2528 64.1562 10.076 65.0575 9.7223 65.8203C9.36861 66.5788 8.87855 67.1669 8.25213 67.5845C7.62571 67.9979 6.90341 68.2045 6.08523 68.2045C5.45455 68.2045 4.94957 68.1001 4.57031 67.8913C4.19105 67.6783 3.89915 67.4375 3.6946 67.169C3.49006 66.8963 3.33239 66.6705 3.22159 66.4915H3.04261V68H1.58523ZM3.06818 63.0909C3.06818 63.8324 3.17685 64.4865 3.39418 65.0533C3.61151 65.6158 3.92898 66.0568 4.34659 66.3764C4.7642 66.6918 5.27557 66.8494 5.88068 66.8494C6.51136 66.8494 7.03764 66.6832 7.45952 66.3509C7.88565 66.0142 8.20526 65.5625 8.41832 64.9957C8.63565 64.4247 8.74432 63.7898 8.74432 63.0909C8.74432 62.4006 8.63778 61.7784 8.42472 61.2244C8.21591 60.6662 7.89844 60.2251 7.4723 59.9013C7.05043 59.5732 6.51989 59.4091 5.88068 59.4091C5.26705 59.4091 4.75142 59.5646 4.33381 59.8757C3.91619 60.1825 3.60085 60.6129 3.38778 61.1669C3.17472 61.7166 3.06818 62.358 3.06818 63.0909ZM16.6768 68.2045C15.7308 68.2045 14.9148 67.9957 14.2287 67.5781C13.5469 67.1562 13.0206 66.5682 12.6499 65.8139C12.2834 65.0554 12.1001 64.1733 12.1001 63.1676C12.1001 62.1619 12.2834 61.2756 12.6499 60.5085C13.0206 59.7372 13.5362 59.1364 14.1967 58.706C14.8615 58.2713 15.6371 58.054 16.5234 58.054C17.0348 58.054 17.5398 58.1392 18.0384 58.3097C18.5369 58.4801 18.9908 58.7571 19.3999 59.1406C19.8089 59.5199 20.1349 60.0227 20.3778 60.6491C20.6207 61.2756 20.7422 62.0469 20.7422 62.9631V63.6023H13.174V62.2983H19.2081C19.2081 61.7443 19.0973 61.25 18.8757 60.8153C18.6584 60.3807 18.3473 60.0376 17.9425 59.7862C17.5419 59.5348 17.0689 59.4091 16.5234 59.4091C15.9226 59.4091 15.4027 59.5582 14.9638 59.8565C14.5291 60.1506 14.1946 60.5341 13.9602 61.0071C13.7259 61.4801 13.6087 61.9872 13.6087 62.5284V63.3977C13.6087 64.1392 13.7365 64.7678 13.9922 65.2834C14.2521 65.7947 14.6122 66.1847 15.0724 66.4531C15.5327 66.7173 16.0675 66.8494 16.6768 66.8494C17.0732 66.8494 17.4311 66.794 17.7507 66.6832C18.0746 66.5682 18.3537 66.3977 18.5881 66.1719C18.8224 65.9418 19.0036 65.6562 19.1314 65.3153L20.5888 65.7244C20.4354 66.2188 20.1776 66.6534 19.8153 67.0284C19.4531 67.3991 19.0057 67.6889 18.473 67.8977C17.9403 68.1023 17.3416 68.2045 16.6768 68.2045ZM27.1534 68.2045C26.2074 68.2045 25.3913 67.9957 24.7053 67.5781C24.0234 67.1562 23.4972 66.5682 23.1264 65.8139C22.7599 65.0554 22.5767 64.1733 22.5767 63.1676C22.5767 62.1619 22.7599 61.2756 23.1264 60.5085C23.4972 59.7372 24.0128 59.1364 24.6733 58.706C25.3381 58.2713 26.1136 58.054 27 58.054C27.5114 58.054 28.0163 58.1392 28.5149 58.3097C29.0135 58.4801 29.4673 58.7571 29.8764 59.1406C30.2855 59.5199 30.6115 60.0227 30.8544 60.6491C31.0973 61.2756 31.2188 62.0469 31.2188 62.9631V63.6023H23.6506V62.2983H29.6847C29.6847 61.7443 29.5739 61.25 29.3523 60.8153C29.1349 60.3807 28.8239 60.0376 28.419 59.7862C28.0185 59.5348 27.5455 59.4091 27 59.4091C26.3991 59.4091 25.8793 59.5582 25.4403 59.8565C25.0057 60.1506 24.6712 60.5341 24.4368 61.0071C24.2024 61.4801 24.0852 61.9872 24.0852 62.5284V63.3977C24.0852 64.1392 24.2131 64.7678 24.4688 65.2834C24.7287 65.7947 25.0888 66.1847 25.549 66.4531C26.0092 66.7173 26.544 66.8494 27.1534 66.8494C27.5497 66.8494 27.9077 66.794 28.2273 66.6832C28.5511 66.5682 28.8303 66.3977 29.0646 66.1719C29.299 65.9418 29.4801 65.6562 29.608 65.3153L31.0653 65.7244C30.9119 66.2188 30.6541 66.6534 30.2919 67.0284C29.9297 67.3991 29.4822 67.6889 28.9496 67.8977C28.4169 68.1023 27.8182 68.2045 27.1534 68.2045ZM35.022 62.0938V68H33.5135V58.1818H34.9709V59.7159H35.0987C35.3288 59.2173 35.6783 58.8168 36.147 58.5142C36.6158 58.2074 37.2209 58.054 37.9624 58.054C38.6271 58.054 39.2088 58.1903 39.7074 58.4631C40.206 58.7315 40.5938 59.1406 40.8707 59.6903C41.1477 60.2358 41.2862 60.9261 41.2862 61.7614V68H39.7777V61.8636C39.7777 61.0923 39.5774 60.4915 39.1768 60.0611C38.7763 59.6264 38.2266 59.4091 37.5277 59.4091C37.0462 59.4091 36.6158 59.5135 36.2365 59.7223C35.8615 59.9311 35.5653 60.2358 35.348 60.6364C35.1307 61.0369 35.022 61.5227 35.022 62.0938ZM53.2218 68.2045C52.2757 68.2045 51.4597 67.9957 50.7736 67.5781C50.0918 67.1562 49.5655 66.5682 49.1948 65.8139C48.8283 65.0554 48.6451 64.1733 48.6451 63.1676C48.6451 62.1619 48.8283 61.2756 49.1948 60.5085C49.5655 59.7372 50.0811 59.1364 50.7417 58.706C51.4064 58.2713 52.182 58.054 53.0684 58.054C53.5797 58.054 54.0847 58.1392 54.5833 58.3097C55.0819 58.4801 55.5357 58.7571 55.9448 59.1406C56.3539 59.5199 56.6799 60.0227 56.9228 60.6491C57.1657 61.2756 57.2871 62.0469 57.2871 62.9631V63.6023H49.7189V62.2983H55.753C55.753 61.7443 55.6422 61.25 55.4206 60.8153C55.2033 60.3807 54.8922 60.0376 54.4874 59.7862C54.0868 59.5348 53.6138 59.4091 53.0684 59.4091C52.4675 59.4091 51.9476 59.5582 51.5087 59.8565C51.074 60.1506 50.7395 60.5341 50.5051 61.0071C50.2708 61.4801 50.1536 61.9872 50.1536 62.5284V63.3977C50.1536 64.1392 50.2814 64.7678 50.5371 65.2834C50.7971 65.7947 51.1571 66.1847 51.6174 66.4531C52.0776 66.7173 52.6124 66.8494 53.2218 66.8494C53.6181 66.8494 53.976 66.794 54.2956 66.6832C54.6195 66.5682 54.8986 66.3977 55.133 66.1719C55.3674 65.9418 55.5485 65.6562 55.6763 65.3153L57.1337 65.7244C56.9803 66.2188 56.7225 66.6534 56.3603 67.0284C55.998 67.3991 55.5506 67.6889 55.0179 67.8977C54.4853 68.1023 53.8865 68.2045 53.2218 68.2045ZM62.4711 68.2301C61.8489 68.2301 61.2843 68.1129 60.7772 67.8786C60.2701 67.6399 59.8674 67.2969 59.5691 66.8494C59.2708 66.3977 59.1216 65.8523 59.1216 65.2131C59.1216 64.6506 59.2324 64.1946 59.454 63.8452C59.6756 63.4915 59.9718 63.2145 60.3425 63.0142C60.7132 62.8139 61.1223 62.6648 61.5698 62.5668C62.0215 62.4645 62.4753 62.3835 62.9313 62.3239C63.5279 62.2472 64.0115 62.1896 64.3823 62.1513C64.7573 62.1087 65.03 62.0384 65.2005 61.9403C65.3752 61.8423 65.4625 61.6719 65.4625 61.429V61.3778C65.4625 60.7472 65.29 60.2571 64.9448 59.9077C64.6039 59.5582 64.0861 59.3835 63.3915 59.3835C62.6713 59.3835 62.1067 59.5412 61.6976 59.8565C61.2885 60.1719 61.0009 60.5085 60.8347 60.8665L59.4029 60.3551C59.6586 59.7585 59.9995 59.294 60.4256 58.9616C60.856 58.625 61.3248 58.3906 61.8319 58.2585C62.3432 58.1222 62.8461 58.054 63.3404 58.054C63.6557 58.054 64.0179 58.0923 64.427 58.169C64.8404 58.2415 65.2388 58.3928 65.6223 58.6229C66.0101 58.853 66.3319 59.2003 66.5875 59.6648C66.8432 60.1293 66.9711 60.7514 66.9711 61.5312V68H65.4625V66.6705H65.3858C65.2836 66.8835 65.1131 67.1115 64.8745 67.3544C64.6358 67.5973 64.3184 67.804 63.9221 67.9744C63.5257 68.1449 63.0421 68.2301 62.4711 68.2301ZM62.7012 66.875C63.2978 66.875 63.8006 66.7578 64.2097 66.5234C64.623 66.2891 64.9341 65.9865 65.1429 65.6158C65.356 65.245 65.4625 64.8551 65.4625 64.446V63.0653C65.3986 63.142 65.258 63.2124 65.0407 63.2763C64.8276 63.3359 64.5804 63.3892 64.2992 63.4361C64.0222 63.4787 63.7516 63.517 63.4874 63.5511C63.2275 63.581 63.0165 63.6065 62.8546 63.6278C62.4625 63.679 62.0961 63.7621 61.7551 63.8771C61.4185 63.9879 61.1458 64.1562 60.937 64.3821C60.7324 64.6037 60.6301 64.9062 60.6301 65.2898C60.6301 65.8139 60.824 66.2102 61.2118 66.4787C61.6039 66.7429 62.1003 66.875 62.7012 66.875ZM76.679 60.3807L75.3239 60.7642C75.2386 60.5384 75.1129 60.3189 74.9467 60.1058C74.7848 59.8885 74.5632 59.7095 74.282 59.5689C74.0007 59.4283 73.6406 59.358 73.2017 59.358C72.6009 59.358 72.1001 59.4964 71.6996 59.7734C71.3033 60.0462 71.1051 60.3935 71.1051 60.8153C71.1051 61.1903 71.2415 61.4865 71.5142 61.7038C71.7869 61.9212 72.2131 62.1023 72.7926 62.2472L74.25 62.6051C75.1278 62.8182 75.782 63.1442 76.2124 63.5831C76.6428 64.0178 76.858 64.5781 76.858 65.2642C76.858 65.8267 76.696 66.3295 76.3722 66.7727C76.0526 67.2159 75.6051 67.5653 75.0298 67.821C74.4545 68.0767 73.7855 68.2045 73.0227 68.2045C72.0213 68.2045 71.1925 67.9872 70.5362 67.5526C69.88 67.1179 69.4645 66.483 69.2898 65.6477L70.7216 65.2898C70.858 65.8182 71.1158 66.2145 71.495 66.4787C71.8786 66.7429 72.3793 66.875 72.9972 66.875C73.7003 66.875 74.2585 66.7259 74.6719 66.4276C75.0895 66.125 75.2983 65.7628 75.2983 65.3409C75.2983 65 75.179 64.7145 74.9403 64.4844C74.7017 64.25 74.3352 64.0753 73.8409 63.9602L72.2045 63.5767C71.3054 63.3636 70.6449 63.0334 70.223 62.5859C69.8054 62.1342 69.5966 61.5696 69.5966 60.892C69.5966 60.3381 69.7521 59.848 70.0632 59.4219C70.3786 58.9957 70.8068 58.6612 71.348 58.4183C71.8935 58.1754 72.5114 58.054 73.2017 58.054C74.1733 58.054 74.9361 58.267 75.4901 58.6932C76.0483 59.1193 76.4446 59.6818 76.679 60.3807ZM79.1287 68V58.1818H80.6373V68H79.1287ZM79.8958 56.5455C79.6017 56.5455 79.3482 56.4453 79.1351 56.245C78.9263 56.0447 78.8219 55.804 78.8219 55.5227C78.8219 55.2415 78.9263 55.0007 79.1351 54.8004C79.3482 54.6001 79.6017 54.5 79.8958 54.5C80.1898 54.5 80.4412 54.6001 80.65 54.8004C80.8631 55.0007 80.9696 55.2415 80.9696 55.5227C80.9696 55.804 80.8631 56.0447 80.65 56.245C80.4412 56.4453 80.1898 56.5455 79.8958 56.5455ZM87.5167 68.2045C86.5707 68.2045 85.7546 67.9957 85.0685 67.5781C84.3867 67.1562 83.8604 66.5682 83.4897 65.8139C83.1232 65.0554 82.94 64.1733 82.94 63.1676C82.94 62.1619 83.1232 61.2756 83.4897 60.5085C83.8604 59.7372 84.3761 59.1364 85.0366 58.706C85.7013 58.2713 86.4769 58.054 87.3633 58.054C87.8746 58.054 88.3796 58.1392 88.8782 58.3097C89.3768 58.4801 89.8306 58.7571 90.2397 59.1406C90.6488 59.5199 90.9748 60.0227 91.2177 60.6491C91.4606 61.2756 91.582 62.0469 91.582 62.9631V63.6023H84.0138V62.2983H90.0479C90.0479 61.7443 89.9371 61.25 89.7156 60.8153C89.4982 60.3807 89.1871 60.0376 88.7823 59.7862C88.3817 59.5348 87.9087 59.4091 87.3633 59.4091C86.7624 59.4091 86.2425 59.5582 85.8036 59.8565C85.369 60.1506 85.0344 60.5341 84.8001 61.0071C84.5657 61.4801 84.4485 61.9872 84.4485 62.5284V63.3977C84.4485 64.1392 84.5763 64.7678 84.832 65.2834C85.092 65.7947 85.4521 66.1847 85.9123 66.4531C86.3725 66.7173 86.9073 66.8494 87.5167 66.8494C87.913 66.8494 88.271 66.794 88.5906 66.6832C88.9144 66.5682 89.1935 66.3977 89.4279 66.1719C89.6623 65.9418 89.8434 65.6562 89.9712 65.3153L91.4286 65.7244C91.2752 66.2188 91.0174 66.6534 90.6552 67.0284C90.293 67.3991 89.8455 67.6889 89.3129 67.8977C88.7802 68.1023 88.1815 68.2045 87.5167 68.2045ZM93.8768 68V58.1818H95.3342V59.6648H95.4364C95.6154 59.179 95.9393 58.7848 96.408 58.4822C96.8768 58.1797 97.4052 58.0284 97.9933 58.0284C98.104 58.0284 98.2425 58.0305 98.4087 58.0348C98.5749 58.0391 98.7006 58.0455 98.7859 58.054V59.5881C98.7347 59.5753 98.6175 59.5561 98.4343 59.5305C98.2553 59.5007 98.0657 59.4858 97.8654 59.4858C97.3881 59.4858 96.962 59.5859 96.587 59.7862C96.2163 59.9822 95.9222 60.255 95.7049 60.6044C95.4918 60.9496 95.3853 61.3437 95.3853 61.7869V68H93.8768Z" fill="#515759"/>
</svg>
