<svg width="50" height="50" viewBox="0 0 50 50" fill="none" xmlns="http://www.w3.org/2000/svg">
<path d="M36.7188 10.2539V27.832L31.8848 45.4102C31.8848 46.2303 31.2111 46.875 30.4199 46.875H5.95703C5.13649 46.875 4.49219 46.2303 4.49219 45.4102V1.46484C4.49219 0.644302 5.13649 0 5.95703 0H26.4648V10.2539H36.7188Z" fill="#FFF5F5"/>
<path d="M36.7188 10.2539V27.832L31.8848 45.4102C31.8848 46.2303 31.2111 46.875 30.4199 46.875H19.1406V0H26.4648V10.2539H36.7188Z" fill="#EFE2DD"/>
<path d="M27.5005 0.429153C27.2259 0.154495 26.8539 0 26.4648 0V10.2539H36.7188C36.7188 9.86481 36.5643 9.49287 36.2896 9.21822L27.5005 0.429153Z" fill="#CDBFBA"/>
<path d="M44.043 26.5625H26.4648C25.6443 26.5625 25 27.2068 25 28.0273V36.3476C25 42.4999 28.9257 47.9786 34.7851 49.9119C34.9316 49.9706 35.1074 50 35.2539 50C35.4004 50 35.5762 49.9706 35.7227 49.9119C41.5821 47.9786 45.5078 42.4999 45.5078 36.3476V28.0273C45.5078 27.2068 44.8635 26.5625 44.043 26.5625Z" fill="#6FE8D5"/>
<path d="M45.5078 28.0273V36.3476C45.5078 42.4999 41.5821 47.9786 35.7227 49.9119C35.5762 49.9706 35.4004 50 35.2539 50V26.5625H44.043C44.8635 26.5625 45.5078 27.2068 45.5078 28.0273Z" fill="#15CCC2"/>
<path d="M30.8594 16.1133C30.8594 16.9334 30.2151 17.5781 29.3945 17.5781H11.8164C10.9959 17.5781 10.3516 16.9334 10.3516 16.1133C10.3516 15.2927 10.9959 14.6484 11.8164 14.6484H29.3945C30.2151 14.6484 30.8594 15.2927 30.8594 16.1133Z" fill="#EFE2DD"/>
<path d="M30.8594 21.9727C30.8594 22.7928 30.2151 23.4375 29.3945 23.4375H11.8164C10.9959 23.4375 10.3516 22.7928 10.3516 21.9727C10.3516 21.1521 10.9959 20.5078 11.8164 20.5078H29.3945C30.2151 20.5078 30.8594 21.1521 30.8594 21.9727Z" fill="#EFE2DD"/>
<path d="M22.0703 27.832C22.0703 28.6522 21.426 29.2969 20.6055 29.2969H11.8164C10.9959 29.2969 10.3516 28.6522 10.3516 27.832C10.3516 27.0115 10.9959 26.3672 11.8164 26.3672H20.6055C21.426 26.3672 22.0703 27.0115 22.0703 27.832Z" fill="#EFE2DD"/>
<path d="M22.0703 10.2539C22.0703 11.0744 21.426 11.7188 20.6055 11.7188H11.8164C10.9959 11.7188 10.3516 11.0744 10.3516 10.2539C10.3516 9.43336 10.9959 8.78906 11.8164 8.78906H20.6055C21.426 8.78906 22.0703 9.43336 22.0703 10.2539Z" fill="#EFE2DD"/>
<path d="M22.0703 33.6914C22.0703 34.5116 21.426 35.1562 20.6055 35.1562H11.8164C10.9959 35.1562 10.3516 34.5116 10.3516 33.6914C10.3516 32.8709 10.9959 32.2266 11.8164 32.2266H20.6055C21.426 32.2266 22.0703 32.8709 22.0703 33.6914Z" fill="#EFE2DD"/>
<path d="M22.0703 39.5508C22.0703 40.3709 21.426 41.0156 20.6055 41.0156H11.8164C10.9959 41.0156 10.3516 40.3709 10.3516 39.5508C10.3516 38.7302 10.9959 38.0859 11.8164 38.0859H20.6055C21.426 38.0859 22.0703 38.7302 22.0703 39.5508Z" fill="#EFE2DD"/>
<path d="M40.8203 34.7657L36.4258 40.625C36.1622 40.9767 35.7811 41.1816 35.371 41.211H35.2539C34.8732 41.211 34.4921 41.0645 34.2285 40.7715L31.2988 37.8418C30.7129 37.2853 30.7129 36.3476 31.2988 35.791C31.8554 35.2051 32.793 35.2051 33.3496 35.791L35.1074 37.5195L35.2539 37.3146L38.4766 33.0079C38.9748 32.3632 39.8827 32.2461 40.5274 32.7149C41.172 33.2127 41.3185 34.121 40.8203 34.7657Z" fill="#0B799D"/>
<path d="M40.8203 34.7657L36.4258 40.625C36.1622 40.9767 35.7811 41.1816 35.371 41.211H35.2539V37.3143L38.4766 33.0079C38.9748 32.3632 39.8827 32.2461 40.5273 32.7149C41.172 33.2127 41.3185 34.121 40.8203 34.7657Z" fill="#07485E"/>
<path d="M22.0703 39.5508C22.0703 40.3709 21.426 41.0156 20.6055 41.0156H19.1406V38.0859H20.6055C21.426 38.0859 22.0703 38.7302 22.0703 39.5508Z" fill="#CDBFBA"/>
<path d="M22.0703 33.6914C22.0703 34.5116 21.426 35.1562 20.6055 35.1562H19.1406V32.2266H20.6055C21.426 32.2266 22.0703 32.8709 22.0703 33.6914Z" fill="#CDBFBA"/>
<path d="M22.0703 27.832C22.0703 28.6522 21.426 29.2969 20.6055 29.2969H19.1406V26.3672H20.6055C21.426 26.3672 22.0703 27.0115 22.0703 27.832Z" fill="#CDBFBA"/>
<path d="M20.6055 11.7188H19.1406V8.78906H20.6055C21.426 8.78906 22.0703 9.43336 22.0703 10.2539C22.0703 11.0744 21.426 11.7188 20.6055 11.7188Z" fill="#CDBFBA"/>
<path d="M30.8594 21.9727C30.8594 22.7928 30.2151 23.4375 29.3945 23.4375H19.1406V20.5078H29.3945C30.2151 20.5078 30.8594 21.1521 30.8594 21.9727Z" fill="#CDBFBA"/>
<path d="M29.3945 17.5781H19.1406V14.6484H29.3945C30.2151 14.6484 30.8594 15.2927 30.8594 16.1133C30.8594 16.9334 30.2151 17.5781 29.3945 17.5781Z" fill="#CDBFBA"/>
</svg>
